<?xml version="1.0" standalone="no"?>
 <!DOCTYPE svg PUBLIC "-//W3C//DTD SVG 1.1//EN" 
 "http://www.w3.org/Graphics/SVG/1.1/DTD/svg11.dtd"> 
<svg
  xmlns:svg="http://www.w3.org/2000/svg"
  xmlns="http://www.w3.org/2000/svg"
  xmlns:xlink="http://www.w3.org/1999/xlink"
  version="1.1"
  width="29.700220cm" height="21.000720cm" viewBox="0 0 116930 82680">
<title>SVG Picture created as oscillator-100MHz Oscillator.svg date 2020/08/27 14:04:22 </title>
  <desc>Picture generated by Eeschema-SVG </desc>
<g style="fill:#000000; fill-opacity:1;stroke:#000000; stroke-opacity:1;
stroke-linecap:round; stroke-linejoin:round;"
 transform="translate(0 0) scale(1 1)">
</g>
<g style="fill:#000000; fill-opacity:0.0; 
stroke:#000000; stroke-width:-10; stroke-opacity:1; 
stroke-linecap:round; stroke-linejoin:round;">
</g>
<g style="fill:#840000; fill-opacity:0.0; 
stroke:#840000; stroke-width:-10; stroke-opacity:1; 
stroke-linecap:round; stroke-linejoin:round;">
</g>
<g style="fill:#840000; fill-opacity:0.0; 
stroke:#840000; stroke-width:100; stroke-opacity:1; 
stroke-linecap:round; stroke-linejoin:round;">
</g>
<g style="fill:#840000; fill-opacity:0.0; 
stroke:#840000; stroke-width:60; stroke-opacity:1; 
stroke-linecap:round; stroke-linejoin:round;">
<rect x="69690" y="65360" width="42520" height="12600" rx="0" />
</g>
<g style="fill:#840000; fill-opacity:0.0; 
stroke:#840000; stroke-width:100; stroke-opacity:1; 
stroke-linecap:round; stroke-linejoin:round;">
</g>
<g style="fill:#840000; fill-opacity:0.0; 
stroke:#840000; stroke-width:60; stroke-opacity:1; 
stroke-linecap:round; stroke-linejoin:round;">
<rect x="3940" y="3940" width="109050" height="74800" rx="0" />
</g>
<g style="fill:#840000; fill-opacity:0.0; 
stroke:#840000; stroke-width:100; stroke-opacity:1; 
stroke-linecap:round; stroke-linejoin:round;">
</g>
<g style="fill:#840000; fill-opacity:0.0; 
stroke:#840000; stroke-width:60; stroke-opacity:1; 
stroke-linecap:round; stroke-linejoin:round;">
<rect x="4720" y="4720" width="107490" height="73240" rx="0" />
</g>
<g style="fill:#840000; fill-opacity:0.0; 
stroke:#840000; stroke-width:100; stroke-opacity:1; 
stroke-linecap:round; stroke-linejoin:round;">
</g>
<g style="fill:#840000; fill-opacity:0.0; 
stroke:#840000; stroke-width:60; stroke-opacity:1; 
stroke-linecap:round; stroke-linejoin:round;">
<path d="M23620 4720
L23620 3940
" />
</g>
<g style="fill:#840000; fill-opacity:0.0; 
stroke:#840000; stroke-width:100; stroke-opacity:1; 
stroke-linecap:round; stroke-linejoin:round;">
</g>
<g style="fill:#840000; fill-opacity:0.0; 
stroke:#840000; stroke-width:60; stroke-opacity:1; 
stroke-linecap:round; stroke-linejoin:round;">
<path d="M43310 4720
L43310 3940
" />
</g>
<g style="fill:#840000; fill-opacity:0.0; 
stroke:#840000; stroke-width:100; stroke-opacity:1; 
stroke-linecap:round; stroke-linejoin:round;">
</g>
<g style="fill:#840000; fill-opacity:0.0; 
stroke:#840000; stroke-width:60; stroke-opacity:1; 
stroke-linecap:round; stroke-linejoin:round;">
<path d="M62990 4720
L62990 3940
" />
</g>
<g style="fill:#840000; fill-opacity:0.0; 
stroke:#840000; stroke-width:100; stroke-opacity:1; 
stroke-linecap:round; stroke-linejoin:round;">
</g>
<g style="fill:#840000; fill-opacity:0.0; 
stroke:#840000; stroke-width:60; stroke-opacity:1; 
stroke-linecap:round; stroke-linejoin:round;">
<path d="M82680 4720
L82680 3940
" />
</g>
<g style="fill:#840000; fill-opacity:0.0; 
stroke:#840000; stroke-width:100; stroke-opacity:1; 
stroke-linecap:round; stroke-linejoin:round;">
</g>
<g style="fill:#840000; fill-opacity:0.0; 
stroke:#840000; stroke-width:60; stroke-opacity:1; 
stroke-linecap:round; stroke-linejoin:round;">
<path d="M102360 4720
L102360 3940
" />
</g>
<g style="fill:#840000; fill-opacity:0.0; 
stroke:#840000; stroke-width:100; stroke-opacity:1; 
stroke-linecap:round; stroke-linejoin:round;">
</g>
<g style="fill:#840000; fill-opacity:0.0; 
stroke:#840000; stroke-width:60; stroke-opacity:1; 
stroke-linecap:round; stroke-linejoin:round;">
<text x="13780" y="4580"
textLength="550" font-size="680" lengthAdjust="spacingAndGlyphs"
text-anchor="start" opacity="0">1</text>
<path d="M14190 4560
L13900 4560
" />
<path d="M14050 4560
L14050 4050
L14000 4120
L13950 4170
L13900 4190
" />
</g>
<g style="fill:#840000; fill-opacity:0.0; 
stroke:#840000; stroke-width:100; stroke-opacity:1; 
stroke-linecap:round; stroke-linejoin:round;">
</g>
<g style="fill:#840000; fill-opacity:0.0; 
stroke:#840000; stroke-width:60; stroke-opacity:1; 
stroke-linecap:round; stroke-linejoin:round;">
<text x="33460" y="4580"
textLength="550" font-size="680" lengthAdjust="spacingAndGlyphs"
text-anchor="start" opacity="0">2</text>
<path d="M33580 4090
L33610 4070
L33660 4050
L33780 4050
L33830 4070
L33850 4090
L33870 4140
L33870 4190
L33850 4260
L33560 4560
L33870 4560
" />
</g>
<g style="fill:#840000; fill-opacity:0.0; 
stroke:#840000; stroke-width:100; stroke-opacity:1; 
stroke-linecap:round; stroke-linejoin:round;">
</g>
<g style="fill:#840000; fill-opacity:0.0; 
stroke:#840000; stroke-width:60; stroke-opacity:1; 
stroke-linecap:round; stroke-linejoin:round;">
<text x="53150" y="4580"
textLength="550" font-size="680" lengthAdjust="spacingAndGlyphs"
text-anchor="start" opacity="0">3</text>
<path d="M53250 4050
L53560 4050
L53390 4240
L53470 4240
L53520 4260
L53540 4290
L53560 4340
L53560 4460
L53540 4510
L53520 4530
L53470 4560
L53320 4560
L53270 4530
L53250 4510
" />
</g>
<g style="fill:#840000; fill-opacity:0.0; 
stroke:#840000; stroke-width:100; stroke-opacity:1; 
stroke-linecap:round; stroke-linejoin:round;">
</g>
<g style="fill:#840000; fill-opacity:0.0; 
stroke:#840000; stroke-width:60; stroke-opacity:1; 
stroke-linecap:round; stroke-linejoin:round;">
<text x="72830" y="4580"
textLength="550" font-size="680" lengthAdjust="spacingAndGlyphs"
text-anchor="start" opacity="0">4</text>
<path d="M73200 4220
L73200 4560
" />
<path d="M73070 4020
L72950 4390
L73270 4390
" />
</g>
<g style="fill:#840000; fill-opacity:0.0; 
stroke:#840000; stroke-width:100; stroke-opacity:1; 
stroke-linecap:round; stroke-linejoin:round;">
</g>
<g style="fill:#840000; fill-opacity:0.0; 
stroke:#840000; stroke-width:60; stroke-opacity:1; 
stroke-linecap:round; stroke-linejoin:round;">
<text x="92520" y="4580"
textLength="550" font-size="680" lengthAdjust="spacingAndGlyphs"
text-anchor="start" opacity="0">5</text>
<path d="M92910 4050
L92670 4050
L92640 4290
L92670 4260
L92720 4240
L92840 4240
L92890 4260
L92910 4290
L92930 4340
L92930 4460
L92910 4510
L92890 4530
L92840 4560
L92720 4560
L92670 4530
L92640 4510
" />
</g>
<g style="fill:#840000; fill-opacity:0.0; 
stroke:#840000; stroke-width:100; stroke-opacity:1; 
stroke-linecap:round; stroke-linejoin:round;">
</g>
<g style="fill:#840000; fill-opacity:0.0; 
stroke:#840000; stroke-width:60; stroke-opacity:1; 
stroke-linecap:round; stroke-linejoin:round;">
<text x="112200" y="4580"
textLength="550" font-size="680" lengthAdjust="spacingAndGlyphs"
text-anchor="start" opacity="0">6</text>
<path d="M112570 4050
L112470 4050
L112420 4070
L112400 4090
L112350 4170
L112320 4260
L112320 4460
L112350 4510
L112370 4530
L112420 4560
L112520 4560
L112570 4530
L112590 4510
L112610 4460
L112610 4340
L112590 4290
L112570 4260
L112520 4240
L112420 4240
L112370 4260
L112350 4290
L112320 4340
" />
</g>
<g style="fill:#840000; fill-opacity:0.0; 
stroke:#840000; stroke-width:100; stroke-opacity:1; 
stroke-linecap:round; stroke-linejoin:round;">
</g>
<g style="fill:#840000; fill-opacity:0.0; 
stroke:#840000; stroke-width:60; stroke-opacity:1; 
stroke-linecap:round; stroke-linejoin:round;">
<path d="M23620 77960
L23620 78740
" />
</g>
<g style="fill:#840000; fill-opacity:0.0; 
stroke:#840000; stroke-width:100; stroke-opacity:1; 
stroke-linecap:round; stroke-linejoin:round;">
</g>
<g style="fill:#840000; fill-opacity:0.0; 
stroke:#840000; stroke-width:60; stroke-opacity:1; 
stroke-linecap:round; stroke-linejoin:round;">
<path d="M43310 77960
L43310 78740
" />
</g>
<g style="fill:#840000; fill-opacity:0.0; 
stroke:#840000; stroke-width:100; stroke-opacity:1; 
stroke-linecap:round; stroke-linejoin:round;">
</g>
<g style="fill:#840000; fill-opacity:0.0; 
stroke:#840000; stroke-width:60; stroke-opacity:1; 
stroke-linecap:round; stroke-linejoin:round;">
<path d="M62990 77960
L62990 78740
" />
</g>
<g style="fill:#840000; fill-opacity:0.0; 
stroke:#840000; stroke-width:100; stroke-opacity:1; 
stroke-linecap:round; stroke-linejoin:round;">
</g>
<g style="fill:#840000; fill-opacity:0.0; 
stroke:#840000; stroke-width:60; stroke-opacity:1; 
stroke-linecap:round; stroke-linejoin:round;">
<path d="M82680 77960
L82680 78740
" />
</g>
<g style="fill:#840000; fill-opacity:0.0; 
stroke:#840000; stroke-width:100; stroke-opacity:1; 
stroke-linecap:round; stroke-linejoin:round;">
</g>
<g style="fill:#840000; fill-opacity:0.0; 
stroke:#840000; stroke-width:60; stroke-opacity:1; 
stroke-linecap:round; stroke-linejoin:round;">
<path d="M102360 77960
L102360 78740
" />
</g>
<g style="fill:#840000; fill-opacity:0.0; 
stroke:#840000; stroke-width:100; stroke-opacity:1; 
stroke-linecap:round; stroke-linejoin:round;">
</g>
<g style="fill:#840000; fill-opacity:0.0; 
stroke:#840000; stroke-width:60; stroke-opacity:1; 
stroke-linecap:round; stroke-linejoin:round;">
<text x="13780" y="78600"
textLength="550" font-size="680" lengthAdjust="spacingAndGlyphs"
text-anchor="start" opacity="0">1</text>
<path d="M14190 78580
L13900 78580
" />
<path d="M14050 78580
L14050 78070
L14000 78140
L13950 78190
L13900 78210
" />
</g>
<g style="fill:#840000; fill-opacity:0.0; 
stroke:#840000; stroke-width:100; stroke-opacity:1; 
stroke-linecap:round; stroke-linejoin:round;">
</g>
<g style="fill:#840000; fill-opacity:0.0; 
stroke:#840000; stroke-width:60; stroke-opacity:1; 
stroke-linecap:round; stroke-linejoin:round;">
<text x="33460" y="78600"
textLength="550" font-size="680" lengthAdjust="spacingAndGlyphs"
text-anchor="start" opacity="0">2</text>
<path d="M33580 78110
L33610 78090
L33660 78070
L33780 78070
L33830 78090
L33850 78110
L33870 78160
L33870 78210
L33850 78280
L33560 78580
L33870 78580
" />
</g>
<g style="fill:#840000; fill-opacity:0.0; 
stroke:#840000; stroke-width:100; stroke-opacity:1; 
stroke-linecap:round; stroke-linejoin:round;">
</g>
<g style="fill:#840000; fill-opacity:0.0; 
stroke:#840000; stroke-width:60; stroke-opacity:1; 
stroke-linecap:round; stroke-linejoin:round;">
<text x="53150" y="78600"
textLength="550" font-size="680" lengthAdjust="spacingAndGlyphs"
text-anchor="start" opacity="0">3</text>
<path d="M53250 78070
L53560 78070
L53390 78260
L53470 78260
L53520 78280
L53540 78310
L53560 78360
L53560 78480
L53540 78530
L53520 78550
L53470 78580
L53320 78580
L53270 78550
L53250 78530
" />
</g>
<g style="fill:#840000; fill-opacity:0.0; 
stroke:#840000; stroke-width:100; stroke-opacity:1; 
stroke-linecap:round; stroke-linejoin:round;">
</g>
<g style="fill:#840000; fill-opacity:0.0; 
stroke:#840000; stroke-width:60; stroke-opacity:1; 
stroke-linecap:round; stroke-linejoin:round;">
<text x="72830" y="78600"
textLength="550" font-size="680" lengthAdjust="spacingAndGlyphs"
text-anchor="start" opacity="0">4</text>
<path d="M73200 78240
L73200 78580
" />
<path d="M73070 78040
L72950 78410
L73270 78410
" />
</g>
<g style="fill:#840000; fill-opacity:0.0; 
stroke:#840000; stroke-width:100; stroke-opacity:1; 
stroke-linecap:round; stroke-linejoin:round;">
</g>
<g style="fill:#840000; fill-opacity:0.0; 
stroke:#840000; stroke-width:60; stroke-opacity:1; 
stroke-linecap:round; stroke-linejoin:round;">
<text x="92520" y="78600"
textLength="550" font-size="680" lengthAdjust="spacingAndGlyphs"
text-anchor="start" opacity="0">5</text>
<path d="M92910 78070
L92670 78070
L92640 78310
L92670 78280
L92720 78260
L92840 78260
L92890 78280
L92910 78310
L92930 78360
L92930 78480
L92910 78530
L92890 78550
L92840 78580
L92720 78580
L92670 78550
L92640 78530
" />
</g>
<g style="fill:#840000; fill-opacity:0.0; 
stroke:#840000; stroke-width:100; stroke-opacity:1; 
stroke-linecap:round; stroke-linejoin:round;">
</g>
<g style="fill:#840000; fill-opacity:0.0; 
stroke:#840000; stroke-width:60; stroke-opacity:1; 
stroke-linecap:round; stroke-linejoin:round;">
<text x="112200" y="78600"
textLength="550" font-size="680" lengthAdjust="spacingAndGlyphs"
text-anchor="start" opacity="0">6</text>
<path d="M112570 78070
L112470 78070
L112420 78090
L112400 78110
L112350 78190
L112320 78280
L112320 78480
L112350 78530
L112370 78550
L112420 78580
L112520 78580
L112570 78550
L112590 78530
L112610 78480
L112610 78360
L112590 78310
L112570 78280
L112520 78260
L112420 78260
L112370 78280
L112350 78310
L112320 78360
" />
</g>
<g style="fill:#840000; fill-opacity:0.0; 
stroke:#840000; stroke-width:100; stroke-opacity:1; 
stroke-linecap:round; stroke-linejoin:round;">
</g>
<g style="fill:#840000; fill-opacity:0.0; 
stroke:#840000; stroke-width:60; stroke-opacity:1; 
stroke-linecap:round; stroke-linejoin:round;">
<path d="M3940 23620
L4720 23620
" />
</g>
<g style="fill:#840000; fill-opacity:0.0; 
stroke:#840000; stroke-width:100; stroke-opacity:1; 
stroke-linecap:round; stroke-linejoin:round;">
</g>
<g style="fill:#840000; fill-opacity:0.0; 
stroke:#840000; stroke-width:60; stroke-opacity:1; 
stroke-linecap:round; stroke-linejoin:round;">
<path d="M3940 43310
L4720 43310
" />
</g>
<g style="fill:#840000; fill-opacity:0.0; 
stroke:#840000; stroke-width:100; stroke-opacity:1; 
stroke-linecap:round; stroke-linejoin:round;">
</g>
<g style="fill:#840000; fill-opacity:0.0; 
stroke:#840000; stroke-width:60; stroke-opacity:1; 
stroke-linecap:round; stroke-linejoin:round;">
<path d="M3940 62990
L4720 62990
" />
</g>
<g style="fill:#840000; fill-opacity:0.0; 
stroke:#840000; stroke-width:100; stroke-opacity:1; 
stroke-linecap:round; stroke-linejoin:round;">
</g>
<g style="fill:#840000; fill-opacity:0.0; 
stroke:#840000; stroke-width:60; stroke-opacity:1; 
stroke-linecap:round; stroke-linejoin:round;">
<text x="4330" y="14030"
textLength="500" font-size="680" lengthAdjust="spacingAndGlyphs"
text-anchor="middle" opacity="0">A</text>
<path d="M4200 13860
L4450 13860
" />
<path d="M4160 14010
L4330 13500
L4500 14010
" />
</g>
<g style="fill:#840000; fill-opacity:0.0; 
stroke:#840000; stroke-width:100; stroke-opacity:1; 
stroke-linecap:round; stroke-linejoin:round;">
</g>
<g style="fill:#840000; fill-opacity:0.0; 
stroke:#840000; stroke-width:60; stroke-opacity:1; 
stroke-linecap:round; stroke-linejoin:round;">
<text x="4330" y="33710"
textLength="570" font-size="680" lengthAdjust="spacingAndGlyphs"
text-anchor="middle" opacity="0">B</text>
<path d="M4360 33420
L4430 33440
L4460 33470
L4480 33520
L4480 33590
L4460 33640
L4430 33660
L4390 33690
L4190 33690
L4190 33180
L4360 33180
L4410 33200
L4430 33220
L4460 33270
L4460 33320
L4430 33370
L4410 33390
L4360 33420
L4190 33420
" />
</g>
<g style="fill:#840000; fill-opacity:0.0; 
stroke:#840000; stroke-width:100; stroke-opacity:1; 
stroke-linecap:round; stroke-linejoin:round;">
</g>
<g style="fill:#840000; fill-opacity:0.0; 
stroke:#840000; stroke-width:60; stroke-opacity:1; 
stroke-linecap:round; stroke-linejoin:round;">
<text x="4330" y="53400"
textLength="570" font-size="680" lengthAdjust="spacingAndGlyphs"
text-anchor="middle" opacity="0">C</text>
<path d="M4480 53330
L4460 53350
L4390 53380
L4340 53380
L4260 53350
L4220 53300
L4190 53250
L4170 53160
L4170 53080
L4190 52990
L4220 52940
L4260 52890
L4340 52870
L4390 52870
L4460 52890
L4480 52910
" />
</g>
<g style="fill:#840000; fill-opacity:0.0; 
stroke:#840000; stroke-width:100; stroke-opacity:1; 
stroke-linecap:round; stroke-linejoin:round;">
</g>
<g style="fill:#840000; fill-opacity:0.0; 
stroke:#840000; stroke-width:60; stroke-opacity:1; 
stroke-linecap:round; stroke-linejoin:round;">
<text x="4330" y="73080"
textLength="570" font-size="680" lengthAdjust="spacingAndGlyphs"
text-anchor="middle" opacity="0">D</text>
<path d="M4190 73060
L4190 72550
L4310 72550
L4390 72570
L4430 72620
L4460 72670
L4480 72760
L4480 72840
L4460 72930
L4430 72980
L4390 73030
L4310 73060
L4190 73060
" />
</g>
<g style="fill:#840000; fill-opacity:0.0; 
stroke:#840000; stroke-width:100; stroke-opacity:1; 
stroke-linecap:round; stroke-linejoin:round;">
</g>
<g style="fill:#840000; fill-opacity:0.0; 
stroke:#840000; stroke-width:60; stroke-opacity:1; 
stroke-linecap:round; stroke-linejoin:round;">
<path d="M112990 23620
L112210 23620
" />
</g>
<g style="fill:#840000; fill-opacity:0.0; 
stroke:#840000; stroke-width:100; stroke-opacity:1; 
stroke-linecap:round; stroke-linejoin:round;">
</g>
<g style="fill:#840000; fill-opacity:0.0; 
stroke:#840000; stroke-width:60; stroke-opacity:1; 
stroke-linecap:round; stroke-linejoin:round;">
<path d="M112990 43310
L112210 43310
" />
</g>
<g style="fill:#840000; fill-opacity:0.0; 
stroke:#840000; stroke-width:100; stroke-opacity:1; 
stroke-linecap:round; stroke-linejoin:round;">
</g>
<g style="fill:#840000; fill-opacity:0.0; 
stroke:#840000; stroke-width:60; stroke-opacity:1; 
stroke-linecap:round; stroke-linejoin:round;">
<path d="M112990 62990
L112210 62990
" />
</g>
<g style="fill:#840000; fill-opacity:0.0; 
stroke:#840000; stroke-width:100; stroke-opacity:1; 
stroke-linecap:round; stroke-linejoin:round;">
</g>
<g style="fill:#840000; fill-opacity:0.0; 
stroke:#840000; stroke-width:60; stroke-opacity:1; 
stroke-linecap:round; stroke-linejoin:round;">
<text x="112600" y="14030"
textLength="500" font-size="680" lengthAdjust="spacingAndGlyphs"
text-anchor="middle" opacity="0">A</text>
<path d="M112470 13860
L112720 13860
" />
<path d="M112430 14010
L112600 13500
L112770 14010
" />
</g>
<g style="fill:#840000; fill-opacity:0.0; 
stroke:#840000; stroke-width:100; stroke-opacity:1; 
stroke-linecap:round; stroke-linejoin:round;">
</g>
<g style="fill:#840000; fill-opacity:0.0; 
stroke:#840000; stroke-width:60; stroke-opacity:1; 
stroke-linecap:round; stroke-linejoin:round;">
<text x="112600" y="33710"
textLength="570" font-size="680" lengthAdjust="spacingAndGlyphs"
text-anchor="middle" opacity="0">B</text>
<path d="M112630 33420
L112700 33440
L112730 33470
L112750 33520
L112750 33590
L112730 33640
L112700 33660
L112660 33690
L112460 33690
L112460 33180
L112630 33180
L112680 33200
L112700 33220
L112730 33270
L112730 33320
L112700 33370
L112680 33390
L112630 33420
L112460 33420
" />
</g>
<g style="fill:#840000; fill-opacity:0.0; 
stroke:#840000; stroke-width:100; stroke-opacity:1; 
stroke-linecap:round; stroke-linejoin:round;">
</g>
<g style="fill:#840000; fill-opacity:0.0; 
stroke:#840000; stroke-width:60; stroke-opacity:1; 
stroke-linecap:round; stroke-linejoin:round;">
<text x="112600" y="53400"
textLength="570" font-size="680" lengthAdjust="spacingAndGlyphs"
text-anchor="middle" opacity="0">C</text>
<path d="M112750 53330
L112730 53350
L112660 53380
L112610 53380
L112530 53350
L112490 53300
L112460 53250
L112440 53160
L112440 53080
L112460 52990
L112490 52940
L112530 52890
L112610 52870
L112660 52870
L112730 52890
L112750 52910
" />
</g>
<g style="fill:#840000; fill-opacity:0.0; 
stroke:#840000; stroke-width:100; stroke-opacity:1; 
stroke-linecap:round; stroke-linejoin:round;">
</g>
<g style="fill:#840000; fill-opacity:0.0; 
stroke:#840000; stroke-width:60; stroke-opacity:1; 
stroke-linecap:round; stroke-linejoin:round;">
<text x="112600" y="73080"
textLength="570" font-size="680" lengthAdjust="spacingAndGlyphs"
text-anchor="middle" opacity="0">D</text>
<path d="M112460 73060
L112460 72550
L112580 72550
L112660 72570
L112700 72620
L112730 72670
L112750 72760
L112750 72840
L112730 72930
L112700 72980
L112660 73030
L112580 73060
L112460 73060
" />
</g>
<g style="fill:#840000; fill-opacity:0.0; 
stroke:#840000; stroke-width:100; stroke-opacity:1; 
stroke-linecap:round; stroke-linejoin:round;">
</g>
<g style="fill:#840000; fill-opacity:0.0; 
stroke:#840000; stroke-width:60; stroke-opacity:1; 
stroke-linecap:round; stroke-linejoin:round;">
<text x="78740" y="76320"
textLength="2760" font-size="780" lengthAdjust="spacingAndGlyphs"
text-anchor="start" opacity="0">Date: </text>
<path d="M78910 76290
L78910 75700
L79050 75700
L79130 75730
L79190 75790
L79210 75840
L79240 75950
L79240 76040
L79210 76150
L79190 76210
L79130 76260
L79050 76290
L78910 76290
" />
<path d="M79750 76290
L79750 75980
L79720 75930
L79660 75900
L79550 75900
L79500 75930
" />
<path d="M79750 76260
L79690 76290
L79550 76290
L79500 76260
L79470 76210
L79470 76150
L79500 76100
L79550 76070
L79690 76070
L79750 76040
" />
<path d="M79950 75900
L80170 75900
" />
<path d="M80030 75700
L80030 76210
L80060 76260
L80110 76290
L80170 76290
" />
<path d="M80590 76260
L80540 76290
L80420 76290
L80370 76260
L80340 76210
L80340 75980
L80370 75930
L80420 75900
L80540 75900
L80590 75930
L80620 75980
L80620 76040
L80340 76100
" />
<path d="M80870 76240
L80900 76260
L80870 76290
L80840 76260
L80870 76240
L80870 76290
" />
<path d="M80870 75930
L80900 75950
L80870 75980
L80840 75950
L80870 75930
L80870 75980
" />
</g>
<g style="fill:#840000; fill-opacity:0.0; 
stroke:#840000; stroke-width:100; stroke-opacity:1; 
stroke-linecap:round; stroke-linejoin:round;">
</g>
<g style="fill:#840000; fill-opacity:0.0; 
stroke:#840000; stroke-width:60; stroke-opacity:1; 
stroke-linecap:round; stroke-linejoin:round;">
<path d="M69690 76580
L112210 76580
" />
</g>
<g style="fill:#840000; fill-opacity:0.0; 
stroke:#840000; stroke-width:100; stroke-opacity:1; 
stroke-linecap:round; stroke-linejoin:round;">
</g>
<g style="fill:#840000; fill-opacity:0.0; 
stroke:#840000; stroke-width:60; stroke-opacity:1; 
stroke-linecap:round; stroke-linejoin:round;">
<text x="70080" y="77420"
textLength="23240" font-size="780" lengthAdjust="spacingAndGlyphs"
text-anchor="start" opacity="0">KiCad E.D.A.  kicad 5.1.6-c6e7f7d~87~ubuntu20.04.1</text>
<path d="M70250 77390
L70250 76800
" />
<path d="M70580 77390
L70330 77050
" />
<path d="M70580 76800
L70250 77140
" />
<path d="M70840 77390
L70840 77000
" />
<path d="M70840 76800
L70810 76830
L70840 76860
L70860 76830
L70840 76800
L70840 76860
" />
<path d="M71450 77340
L71430 77360
L71340 77390
L71290 77390
L71200 77360
L71140 77310
L71120 77250
L71090 77140
L71090 77050
L71120 76940
L71140 76890
L71200 76830
L71290 76800
L71340 76800
L71430 76830
L71450 76860
" />
<path d="M71960 77390
L71960 77080
L71930 77030
L71880 77000
L71760 77000
L71710 77030
" />
<path d="M71960 77360
L71900 77390
L71760 77390
L71710 77360
L71680 77310
L71680 77250
L71710 77200
L71760 77170
L71900 77170
L71960 77140
" />
<path d="M72490 77390
L72490 76800
" />
<path d="M72490 77360
L72440 77390
L72320 77390
L72270 77360
L72240 77340
L72210 77280
L72210 77110
L72240 77050
L72270 77030
L72320 77000
L72440 77000
L72490 77030
" />
<path d="M73220 77080
L73420 77080
" />
<path d="M73500 77390
L73220 77390
L73220 76800
L73500 76800
" />
<path d="M73760 77340
L73790 77360
L73760 77390
L73730 77360
L73760 77340
L73760 77390
" />
<path d="M74040 77390
L74040 76800
L74180 76800
L74260 76830
L74320 76890
L74350 76940
L74380 77050
L74380 77140
L74350 77250
L74320 77310
L74260 77360
L74180 77390
L74040 77390
" />
<path d="M74630 77340
L74660 77360
L74630 77390
L74600 77360
L74630 77340
L74630 77390
" />
<path d="M74880 77220
L75160 77220
" />
<path d="M74830 77390
L75020 76800
L75220 77390
" />
<path d="M75420 77340
L75440 77360
L75420 77390
L75390 77360
L75420 77340
L75420 77390
" />
<path d="M76600 77390
L76600 76800
" />
<path d="M76650 77170
L76820 77390
" />
<path d="M76820 77000
L76600 77220
" />
<path d="M77070 77390
L77070 77000
" />
<path d="M77070 76800
L77040 76830
L77070 76860
L77100 76830
L77070 76800
L77070 76860
" />
<path d="M77610 77360
L77550 77390
L77440 77390
L77380 77360
L77350 77340
L77330 77280
L77330 77110
L77350 77050
L77380 77030
L77440 77000
L77550 77000
L77610 77030
" />
<path d="M78110 77390
L78110 77080
L78080 77030
L78030 77000
L77920 77000
L77860 77030
" />
<path d="M78110 77360
L78060 77390
L77920 77390
L77860 77360
L77830 77310
L77830 77250
L77860 77200
L77920 77170
L78060 77170
L78110 77140
" />
<path d="M78650 77390
L78650 76800
" />
<path d="M78650 77360
L78590 77390
L78480 77390
L78420 77360
L78390 77340
L78370 77280
L78370 77110
L78390 77050
L78420 77030
L78480 77000
L78590 77000
L78650 77030
" />
<path d="M79660 76800
L79380 76800
L79350 77080
L79380 77050
L79430 77030
L79570 77030
L79630 77050
L79660 77080
L79690 77140
L79690 77280
L79660 77340
L79630 77360
L79570 77390
L79430 77390
L79380 77360
L79350 77340
" />
<path d="M79940 77340
L79970 77360
L79940 77390
L79910 77360
L79940 77340
L79940 77390
" />
<path d="M80530 77390
L80190 77390
" />
<path d="M80360 77390
L80360 76800
L80300 76890
L80250 76940
L80190 76970
" />
<path d="M80780 77340
L80810 77360
L80780 77390
L80750 77360
L80780 77340
L80780 77390
" />
<path d="M81320 76800
L81200 76800
L81150 76830
L81120 76860
L81060 76940
L81030 77050
L81030 77280
L81060 77340
L81090 77360
L81150 77390
L81260 77390
L81320 77360
L81340 77340
L81370 77280
L81370 77140
L81340 77080
L81320 77050
L81260 77030
L81150 77030
L81090 77050
L81060 77080
L81030 77140
" />
<path d="M81620 77170
L82070 77170
" />
<path d="M82610 77360
L82550 77390
L82440 77390
L82380 77360
L82350 77340
L82330 77280
L82330 77110
L82350 77050
L82380 77030
L82440 77000
L82550 77000
L82610 77030
" />
<path d="M83110 76800
L83000 76800
L82940 76830
L82920 76860
L82860 76940
L82830 77050
L82830 77280
L82860 77340
L82890 77360
L82940 77390
L83060 77390
L83110 77360
L83140 77340
L83170 77280
L83170 77140
L83140 77080
L83110 77050
L83060 77030
L82940 77030
L82890 77050
L82860 77080
L82830 77140
" />
<path d="M83650 77360
L83590 77390
L83480 77390
L83420 77360
L83390 77310
L83390 77080
L83420 77030
L83480 77000
L83590 77000
L83650 77030
L83680 77080
L83680 77140
L83390 77200
" />
<path d="M83870 76800
L84270 76800
L84010 77390
" />
<path d="M84410 77000
L84630 77000
" />
<path d="M84490 77390
L84490 76890
L84520 76830
L84570 76800
L84630 76800
" />
<path d="M84770 76800
L85160 76800
L84910 77390
" />
<path d="M85640 77390
L85640 76800
" />
<path d="M85640 77360
L85590 77390
L85470 77390
L85420 77360
L85390 77340
L85360 77280
L85360 77110
L85390 77050
L85420 77030
L85470 77000
L85590 77000
L85640 77030
" />
<path d="M85780 76640
L86340 76640
" />
<path d="M86010 77050
L85950 77030
L85920 77000
L85890 76940
L85890 76910
L85920 76860
L85950 76830
L86010 76800
L86120 76800
L86180 76830
L86200 76860
L86230 76910
L86230 76940
L86200 77000
L86180 77030
L86120 77050
L86010 77050
L85950 77080
L85920 77110
L85890 77170
L85890 77280
L85920 77340
L85950 77360
L86010 77390
L86120 77390
L86180 77360
L86200 77340
L86230 77280
L86230 77170
L86200 77110
L86180 77080
L86120 77050
" />
<path d="M86340 76640
L86910 76640
" />
<path d="M86430 76800
L86820 76800
L86570 77390
" />
<path d="M87300 77000
L87300 77390
" />
<path d="M87050 77000
L87050 77310
L87070 77360
L87130 77390
L87220 77390
L87270 77360
L87300 77340
" />
<path d="M87580 77390
L87580 76800
" />
<path d="M87580 77030
L87640 77000
L87750 77000
L87810 77030
L87830 77050
L87860 77110
L87860 77280
L87830 77340
L87810 77360
L87750 77390
L87640 77390
L87580 77360
" />
<path d="M88370 77000
L88370 77390
" />
<path d="M88110 77000
L88110 77310
L88140 77360
L88200 77390
L88280 77390
L88340 77360
L88370 77340
" />
<path d="M88650 77000
L88650 77390
" />
<path d="M88650 77050
L88680 77030
L88730 77000
L88820 77000
L88870 77030
L88900 77080
L88900 77390
" />
<path d="M89100 77000
L89320 77000
" />
<path d="M89180 76800
L89180 77310
L89210 77360
L89270 77390
L89320 77390
" />
<path d="M89770 77000
L89770 77390
" />
<path d="M89520 77000
L89520 77310
L89550 77360
L89600 77390
L89690 77390
L89740 77360
L89770 77340
" />
<path d="M90020 76860
L90050 76830
L90110 76800
L90250 76800
L90310 76830
L90330 76860
L90360 76910
L90360 76970
L90330 77050
L90000 77390
L90360 77390
" />
<path d="M90730 76800
L90780 76800
L90840 76830
L90870 76860
L90900 76910
L90920 77030
L90920 77170
L90900 77280
L90870 77340
L90840 77360
L90780 77390
L90730 77390
L90670 77360
L90640 77340
L90610 77280
L90590 77170
L90590 77030
L90610 76910
L90640 76860
L90670 76830
L90730 76800
" />
<path d="M91180 77340
L91200 77360
L91180 77390
L91150 77360
L91180 77340
L91180 77390
" />
<path d="M91570 76800
L91630 76800
L91680 76830
L91710 76860
L91740 76910
L91770 77030
L91770 77170
L91740 77280
L91710 77340
L91680 77360
L91630 77390
L91570 77390
L91510 77360
L91490 77340
L91460 77280
L91430 77170
L91430 77030
L91460 76910
L91490 76860
L91510 76830
L91570 76800
" />
<path d="M92270 77000
L92270 77390
" />
<path d="M92130 76770
L91990 77200
L92360 77200
" />
<path d="M92580 77340
L92610 77360
L92580 77390
L92550 77360
L92580 77340
L92580 77390
" />
<path d="M93170 77390
L92830 77390
" />
<path d="M93000 77390
L93000 76800
L92950 76890
L92890 76940
L92830 76970
" />
</g>
<g style="fill:#840000; fill-opacity:0.0; 
stroke:#840000; stroke-width:100; stroke-opacity:1; 
stroke-linecap:round; stroke-linejoin:round;">
</g>
<g style="fill:#840000; fill-opacity:0.0; 
stroke:#840000; stroke-width:60; stroke-opacity:1; 
stroke-linecap:round; stroke-linejoin:round;">
<path d="M69690 75400
L112210 75400
" />
</g>
<g style="fill:#840000; fill-opacity:0.0; 
stroke:#840000; stroke-width:100; stroke-opacity:1; 
stroke-linecap:round; stroke-linejoin:round;">
</g>
<g style="fill:#840000; fill-opacity:0.0; 
stroke:#840000; stroke-width:120; stroke-opacity:1; 
stroke-linecap:round; stroke-linejoin:round;">
<text x="103540" y="76320"
textLength="2340" font-size="780" lengthAdjust="spacingAndGlyphs"
text-anchor="start" opacity="0">Rev: </text>
<path d="M104090 76290
L103890 76010
" />
<path d="M103750 76290
L103750 75700
L103980 75700
L104030 75730
L104060 75760
L104090 75810
L104090 75900
L104060 75950
L104030 75980
L103980 76010
L103750 76010
" />
<path d="M104570 76260
L104510 76290
L104400 76290
L104340 76260
L104320 76210
L104320 75980
L104340 75930
L104400 75900
L104510 75900
L104570 75930
L104600 75980
L104600 76040
L104320 76100
" />
<path d="M104790 75900
L104930 76290
L105070 75900
" />
<path d="M105300 76240
L105330 76260
L105300 76290
L105270 76260
L105300 76240
L105300 76290
" />
<path d="M105300 75930
L105330 75950
L105300 75980
L105270 75950
L105300 75930
L105300 75980
" />
</g>
<g style="fill:#840000; fill-opacity:0.0; 
stroke:#840000; stroke-width:100; stroke-opacity:1; 
stroke-linecap:round; stroke-linejoin:round;">
</g>
<g style="fill:#840000; fill-opacity:0.0; 
stroke:#840000; stroke-width:60; stroke-opacity:1; 
stroke-linecap:round; stroke-linejoin:round;">
<text x="70080" y="76320"
textLength="3780" font-size="780" lengthAdjust="spacingAndGlyphs"
text-anchor="start" opacity="0">Size: A4</text>
<path d="M70220 76260
L70300 76290
L70440 76290
L70500 76260
L70530 76240
L70550 76180
L70550 76120
L70530 76070
L70500 76040
L70440 76010
L70330 75980
L70270 75950
L70250 75930
L70220 75870
L70220 75810
L70250 75760
L70270 75730
L70330 75700
L70470 75700
L70550 75730
" />
<path d="M70810 76290
L70810 75900
" />
<path d="M70810 75700
L70780 75730
L70810 75760
L70840 75730
L70810 75700
L70810 75760
" />
<path d="M71030 75900
L71340 75900
L71030 76290
L71340 76290
" />
<path d="M71790 76260
L71730 76290
L71620 76290
L71570 76260
L71540 76210
L71540 75980
L71570 75930
L71620 75900
L71730 75900
L71790 75930
L71820 75980
L71820 76040
L71540 76100
" />
<path d="M72070 76240
L72100 76260
L72070 76290
L72040 76260
L72070 76240
L72070 76290
" />
<path d="M72070 75930
L72100 75950
L72070 75980
L72040 75950
L72070 75930
L72070 75980
" />
<path d="M72770 76120
L73060 76120
" />
<path d="M72720 76290
L72910 75700
L73110 76290
" />
<path d="M73560 75900
L73560 76290
" />
<path d="M73420 75670
L73280 76100
L73650 76100
" />
</g>
<g style="fill:#840000; fill-opacity:0.0; 
stroke:#840000; stroke-width:100; stroke-opacity:1; 
stroke-linecap:round; stroke-linejoin:round;">
</g>
<g style="fill:#840000; fill-opacity:0.0; 
stroke:#840000; stroke-width:60; stroke-opacity:1; 
stroke-linecap:round; stroke-linejoin:round;">
<text x="103540" y="77420"
textLength="3350" font-size="780" lengthAdjust="spacingAndGlyphs"
text-anchor="start" opacity="0">Id: 4/7</text>
<path d="M103710 77390
L103710 76800
" />
<path d="M104240 77390
L104240 76800
" />
<path d="M104240 77360
L104180 77390
L104070 77390
L104010 77360
L103990 77340
L103960 77280
L103960 77110
L103990 77050
L104010 77030
L104070 77000
L104180 77000
L104240 77030
" />
<path d="M104520 77340
L104550 77360
L104520 77390
L104490 77360
L104520 77340
L104520 77390
" />
<path d="M104520 77030
L104550 77050
L104520 77080
L104490 77050
L104520 77030
L104520 77080
" />
<path d="M105500 77000
L105500 77390
" />
<path d="M105360 76770
L105220 77200
L105590 77200
" />
<path d="M106230 76770
L105730 77530
" />
<path d="M106370 76800
L106770 76800
L106520 77390
" />
</g>
<g style="fill:#840000; fill-opacity:0.0; 
stroke:#840000; stroke-width:100; stroke-opacity:1; 
stroke-linecap:round; stroke-linejoin:round;">
</g>
<g style="fill:#840000; fill-opacity:0.0; 
stroke:#840000; stroke-width:60; stroke-opacity:1; 
stroke-linecap:round; stroke-linejoin:round;">
<path d="M69690 73820
L112210 73820
" />
</g>
<g style="fill:#840000; fill-opacity:0.0; 
stroke:#840000; stroke-width:100; stroke-opacity:1; 
stroke-linecap:round; stroke-linejoin:round;">
</g>
<g style="fill:#840000; fill-opacity:0.0; 
stroke:#840000; stroke-width:160; stroke-opacity:1; 
stroke-linecap:round; stroke-linejoin:round;">
<text x="70080" y="74920"
textLength="3710" font-size="1050" lengthAdjust="spacingAndGlyphs"
text-anchor="start" opacity="0">Title: </text>
<path d="M70360 74090
L70810 74090
" />
<path d="M70480 74880
L70580 74090
" />
<path d="M70970 74880
L71040 74360
" />
<path d="M71070 74090
L71030 74130
L71060 74170
L71110 74130
L71070 74090
L71060 74170
" />
<path d="M71300 74360
L71600 74360
" />
<path d="M71450 74090
L71360 74770
L71390 74840
L71460 74880
L71540 74880
" />
<path d="M71910 74880
L71840 74840
L71820 74770
L71900 74090
" />
<path d="M72520 74840
L72440 74880
L72290 74880
L72220 74840
L72190 74770
L72230 74470
L72280 74390
L72360 74360
L72510 74360
L72580 74390
L72610 74470
L72600 74540
L72210 74620
" />
<path d="M72900 74810
L72930 74840
L72890 74880
L72860 74840
L72900 74810
L72890 74880
" />
<path d="M72950 74390
L72990 74430
L72940 74470
L72910 74430
L72950 74390
L72940 74470
" />
</g>
<g style="fill:#840000; fill-opacity:0.0; 
stroke:#840000; stroke-width:100; stroke-opacity:1; 
stroke-linecap:round; stroke-linejoin:round;">
</g>
<g style="fill:#840000; fill-opacity:0.0; 
stroke:#840000; stroke-width:60; stroke-opacity:1; 
stroke-linecap:round; stroke-linejoin:round;">
<text x="70080" y="73400"
textLength="8520" font-size="780" lengthAdjust="spacingAndGlyphs"
text-anchor="start" opacity="0">File: oscillator.sch</text>
<path d="M70440 73060
L70250 73060
" />
<path d="M70250 73370
L70250 72780
L70530 72780
" />
<path d="M70750 73370
L70750 72980
" />
<path d="M70750 72780
L70720 72810
L70750 72840
L70780 72810
L70750 72780
L70750 72840
" />
<path d="M71120 73370
L71060 73340
L71030 73290
L71030 72780
" />
<path d="M71570 73340
L71510 73370
L71400 73370
L71340 73340
L71310 73290
L71310 73060
L71340 73010
L71400 72980
L71510 72980
L71570 73010
L71590 73060
L71590 73120
L71310 73180
" />
<path d="M71850 73320
L71880 73340
L71850 73370
L71820 73340
L71850 73320
L71850 73370
" />
<path d="M71850 73010
L71880 73030
L71850 73060
L71820 73030
L71850 73010
L71850 73060
" />
<path d="M72660 73370
L72610 73340
L72580 73320
L72550 73260
L72550 73090
L72580 73030
L72610 73010
L72660 72980
L72750 72980
L72800 73010
L72830 73030
L72860 73090
L72860 73260
L72830 73320
L72800 73340
L72750 73370
L72660 73370
" />
<path d="M73080 73340
L73140 73370
L73250 73370
L73310 73340
L73340 73290
L73340 73260
L73310 73200
L73250 73180
L73170 73180
L73110 73150
L73080 73090
L73080 73060
L73110 73010
L73170 72980
L73250 72980
L73310 73010
" />
<path d="M73840 73340
L73790 73370
L73670 73370
L73620 73340
L73590 73320
L73560 73260
L73560 73090
L73590 73030
L73620 73010
L73670 72980
L73790 72980
L73840 73010
" />
<path d="M74090 73370
L74090 72980
" />
<path d="M74090 72780
L74070 72810
L74090 72840
L74120 72810
L74090 72780
L74090 72840
" />
<path d="M74460 73370
L74400 73340
L74380 73290
L74380 72780
" />
<path d="M74770 73370
L74710 73340
L74680 73290
L74680 72780
" />
<path d="M75250 73370
L75250 73060
L75220 73010
L75160 72980
L75050 72980
L74990 73010
" />
<path d="M75250 73340
L75190 73370
L75050 73370
L74990 73340
L74970 73290
L74970 73230
L74990 73180
L75050 73150
L75190 73150
L75250 73120
" />
<path d="M75440 72980
L75670 72980
" />
<path d="M75530 72780
L75530 73290
L75560 73340
L75610 73370
L75670 73370
" />
<path d="M75950 73370
L75890 73340
L75860 73320
L75840 73260
L75840 73090
L75860 73030
L75890 73010
L75950 72980
L76030 72980
L76090 73010
L76120 73030
L76150 73090
L76150 73260
L76120 73320
L76090 73340
L76030 73370
L75950 73370
" />
<path d="M76400 73370
L76400 72980
" />
<path d="M76400 73090
L76430 73030
L76450 73010
L76510 72980
L76570 72980
" />
<path d="M76760 73320
L76790 73340
L76760 73370
L76740 73340
L76760 73320
L76760 73370
" />
<path d="M77020 73340
L77070 73370
L77190 73370
L77240 73340
L77270 73290
L77270 73260
L77240 73200
L77190 73180
L77100 73180
L77040 73150
L77020 73090
L77020 73060
L77040 73010
L77100 72980
L77190 72980
L77240 73010
" />
<path d="M77780 73340
L77720 73370
L77610 73370
L77550 73340
L77520 73320
L77490 73260
L77490 73090
L77520 73030
L77550 73010
L77610 72980
L77720 72980
L77780 73010
" />
<path d="M78030 73370
L78030 72780
" />
<path d="M78280 73370
L78280 73060
L78250 73010
L78200 72980
L78110 72980
L78060 73010
L78030 73030
" />
</g>
<g style="fill:#840000; fill-opacity:0.0; 
stroke:#840000; stroke-width:100; stroke-opacity:1; 
stroke-linecap:round; stroke-linejoin:round;">
</g>
<g style="fill:#840000; fill-opacity:0.0; 
stroke:#840000; stroke-width:60; stroke-opacity:1; 
stroke-linecap:round; stroke-linejoin:round;">
<path d="M69690 71460
L112210 71460
" />
</g>
<g style="fill:#840000; fill-opacity:0.0; 
stroke:#840000; stroke-width:100; stroke-opacity:1; 
stroke-linecap:round; stroke-linejoin:round;">
</g>
<g style="fill:#840000; fill-opacity:0.0; 
stroke:#840000; stroke-width:60; stroke-opacity:1; 
stroke-linecap:round; stroke-linejoin:round;">
<text x="70080" y="72340"
textLength="12650" font-size="780" lengthAdjust="spacingAndGlyphs"
text-anchor="start" opacity="0">Sheet: /100MHz Oscillator/</text>
<path d="M70220 72280
L70300 72310
L70440 72310
L70500 72280
L70530 72260
L70550 72200
L70550 72140
L70530 72090
L70500 72060
L70440 72030
L70330 72000
L70270 71970
L70250 71950
L70220 71890
L70220 71830
L70250 71780
L70270 71750
L70330 71720
L70470 71720
L70550 71750
" />
<path d="M70810 72310
L70810 71720
" />
<path d="M71060 72310
L71060 72000
L71030 71950
L70980 71920
L70890 71920
L70840 71950
L70810 71970
" />
<path d="M71570 72280
L71510 72310
L71400 72310
L71340 72280
L71310 72230
L71310 72000
L71340 71950
L71400 71920
L71510 71920
L71570 71950
L71590 72000
L71590 72060
L71310 72120
" />
<path d="M72070 72280
L72020 72310
L71900 72310
L71850 72280
L71820 72230
L71820 72000
L71850 71950
L71900 71920
L72020 71920
L72070 71950
L72100 72000
L72100 72060
L71820 72120
" />
<path d="M72270 71920
L72490 71920
" />
<path d="M72350 71720
L72350 72230
L72380 72280
L72440 72310
L72490 72310
" />
<path d="M72690 72260
L72720 72280
L72690 72310
L72660 72280
L72690 72260
L72690 72310
" />
<path d="M72690 71950
L72720 71970
L72690 72000
L72660 71970
L72690 71950
L72690 72000
" />
<path d="M73840 71690
L73340 72450
" />
<path d="M74350 72310
L74010 72310
" />
<path d="M74180 72310
L74180 71720
L74120 71810
L74070 71860
L74010 71890
" />
<path d="M74710 71720
L74770 71720
L74830 71750
L74850 71780
L74880 71830
L74910 71950
L74910 72090
L74880 72200
L74850 72260
L74830 72280
L74770 72310
L74710 72310
L74660 72280
L74630 72260
L74600 72200
L74570 72090
L74570 71950
L74600 71830
L74630 71780
L74660 71750
L74710 71720
" />
<path d="M75270 71720
L75330 71720
L75390 71750
L75420 71780
L75440 71830
L75470 71950
L75470 72090
L75440 72200
L75420 72260
L75390 72280
L75330 72310
L75270 72310
L75220 72280
L75190 72260
L75160 72200
L75130 72090
L75130 71950
L75160 71830
L75190 71780
L75220 71750
L75270 71720
" />
<path d="M75720 72310
L75720 71720
L75920 72140
L76120 71720
L76120 72310
" />
<path d="M76400 72310
L76400 71720
" />
<path d="M76400 72000
L76740 72000
" />
<path d="M76740 72310
L76740 71720
" />
<path d="M76960 71920
L77270 71920
L76960 72310
L77270 72310
" />
<path d="M78060 71720
L78170 71720
L78220 71750
L78280 71810
L78310 71920
L78310 72120
L78280 72230
L78220 72280
L78170 72310
L78060 72310
L78000 72280
L77940 72230
L77920 72120
L77920 71920
L77940 71810
L78000 71750
L78060 71720
" />
<path d="M78530 72280
L78590 72310
L78700 72310
L78760 72280
L78790 72230
L78790 72200
L78760 72140
L78700 72120
L78620 72120
L78560 72090
L78530 72030
L78530 72000
L78560 71950
L78620 71920
L78700 71920
L78760 71950
" />
<path d="M79290 72280
L79240 72310
L79120 72310
L79070 72280
L79040 72260
L79010 72200
L79010 72030
L79040 71970
L79070 71950
L79120 71920
L79240 71920
L79290 71950
" />
<path d="M79550 72310
L79550 71920
" />
<path d="M79550 71720
L79520 71750
L79550 71780
L79570 71750
L79550 71720
L79550 71780
" />
<path d="M79910 72310
L79850 72280
L79830 72230
L79830 71720
" />
<path d="M80220 72310
L80160 72280
L80140 72230
L80140 71720
" />
<path d="M80700 72310
L80700 72000
L80670 71950
L80610 71920
L80500 71920
L80440 71950
" />
<path d="M80700 72280
L80640 72310
L80500 72310
L80440 72280
L80420 72230
L80420 72170
L80440 72120
L80500 72090
L80640 72090
L80700 72060
" />
<path d="M80890 71920
L81120 71920
" />
<path d="M80980 71720
L80980 72230
L81010 72280
L81060 72310
L81120 72310
" />
<path d="M81400 72310
L81340 72280
L81320 72260
L81290 72200
L81290 72030
L81320 71970
L81340 71950
L81400 71920
L81480 71920
L81540 71950
L81570 71970
L81600 72030
L81600 72200
L81570 72260
L81540 72280
L81480 72310
L81400 72310
" />
<path d="M81850 72310
L81850 71920
" />
<path d="M81850 72030
L81880 71970
L81910 71950
L81960 71920
L82020 71920
" />
<path d="M82640 71690
L82130 72450
" />
</g>
<g style="fill:#840000; fill-opacity:0.0; 
stroke:#840000; stroke-width:100; stroke-opacity:1; 
stroke-linecap:round; stroke-linejoin:round;">
</g>
<g style="fill:#840000; fill-opacity:0.0; 
stroke:#840000; stroke-width:60; stroke-opacity:1; 
stroke-linecap:round; stroke-linejoin:round;">
<path d="M77560 75400
L77560 76580
" />
</g>
<g style="fill:#840000; fill-opacity:0.0; 
stroke:#840000; stroke-width:100; stroke-opacity:1; 
stroke-linecap:round; stroke-linejoin:round;">
</g>
<g style="fill:#840000; fill-opacity:0.0; 
stroke:#840000; stroke-width:60; stroke-opacity:1; 
stroke-linecap:round; stroke-linejoin:round;">
<path d="M102760 75400
L102760 77960
" />
</g>
<g style="fill:#840000; fill-opacity:0.0; 
stroke:#840000; stroke-width:0; stroke-opacity:1; 
stroke-linecap:round; stroke-linejoin:round;">
<g >
</g>
<g style="fill:#840000; fill-opacity:0.0; 
stroke:#840000; stroke-width:60; stroke-opacity:1; 
stroke-linecap:round; stroke-linejoin:round;">
<path style="fill:#840000; fill-opacity:0.0; 
stroke:#840000; stroke-width:60; stroke-opacity:1; 
stroke-linecap:round; stroke-linejoin:round;fill:none"
d="M 72000,41000
72500,41000
72500,40500
73000,41000
72500,41500
72500,41000
" /> 
</g>
<g style="fill:#008484; fill-opacity:0.0; 
stroke:#008484; stroke-width:60; stroke-opacity:1; 
stroke-linecap:round; stroke-linejoin:round;">
<g transform="rotate(-90 73750 40950)">
<text x="73750" y="41200"
textLength="1580" font-size="660" lengthAdjust="spacingAndGlyphs"
text-anchor="middle" opacity="0">GND</text>
</g>
<path d="M73500 41330
L73470 41370
L73470 41450
L73500 41520
L73540 41560
L73590 41590
L73690 41610
L73760 41610
L73850 41590
L73900 41560
L73950 41520
L73970 41450
L73970 41400
L73950 41330
L73920 41300
L73760 41300
L73760 41400
" />
<path d="M73970 41090
L73470 41090
L73970 40800
L73470 40800
" />
<path d="M73970 40560
L73470 40560
L73470 40450
L73500 40370
L73540 40330
L73590 40300
L73690 40280
L73760 40280
L73850 40300
L73900 40330
L73950 40370
L73970 40450
L73970 40560
" />
</g>
</g>
<g style="fill:#008484; fill-opacity:0.0; 
stroke:#008484; stroke-width:0; stroke-opacity:1; 
stroke-linecap:round; stroke-linejoin:round;">
<g >
</g>
<g style="fill:#840000; fill-opacity:0.0; 
stroke:#840000; stroke-width:0; stroke-opacity:1; 
stroke-linecap:round; stroke-linejoin:round;">
</g>
<g style="fill:#840000; fill-opacity:1.0; 
stroke:#840000; stroke-width:60; stroke-opacity:1; 
stroke-linecap:round; stroke-linejoin:round;">
<rect x="67700" y="40200" width="200" height="1600" rx="0" />
<rect x="68100" y="40200" width="200" height="1600" rx="0" />
</g>
<g style="fill:#840000; fill-opacity:0.0; 
stroke:#840000; stroke-width:60; stroke-opacity:1; 
stroke-linecap:round; stroke-linejoin:round;">
<path style="fill:#840000; fill-opacity:0.0; 
stroke:#840000; stroke-width:60; stroke-opacity:1; 
stroke-linecap:round; stroke-linejoin:round;fill:none"
d="M 67500,41000
67700,41000
" /> 
<path style="fill:#840000; fill-opacity:0.0; 
stroke:#840000; stroke-width:60; stroke-opacity:1; 
stroke-linecap:round; stroke-linejoin:round;fill:none"
d="M 68500,41000
68300,41000
" /> 
<path d="M68500 41000
L69500 41000
" />
<path d="M67500 41000
L66500 41000
" />
</g>
<g style="fill:#008484; fill-opacity:0.0; 
stroke:#008484; stroke-width:60; stroke-opacity:1; 
stroke-linecap:round; stroke-linejoin:round;">
<text x="67500" y="39750"
textLength="940" font-size="600" lengthAdjust="spacingAndGlyphs"
text-anchor="middle" opacity="0">C8</text>
<path d="M67420 39690
L67400 39710
L67330 39730
L67290 39730
L67230 39710
L67180 39660
L67160 39620
L67140 39540
L67140 39470
L67160 39390
L67180 39340
L67230 39300
L67290 39280
L67330 39280
L67400 39300
L67420 39320
" />
<path d="M67680 39470
L67630 39450
L67610 39430
L67590 39390
L67590 39360
L67610 39320
L67630 39300
L67680 39280
L67760 39280
L67810 39300
L67830 39320
L67850 39360
L67850 39390
L67830 39430
L67810 39450
L67760 39470
L67680 39470
L67630 39490
L67610 39510
L67590 39560
L67590 39640
L67610 39690
L67630 39710
L67680 39730
L67760 39730
L67810 39710
L67830 39690
L67850 39640
L67850 39560
L67830 39510
L67810 39490
L67760 39470
" />
<text x="69000" y="39750"
textLength="1990" font-size="600" lengthAdjust="spacingAndGlyphs"
text-anchor="middle" opacity="0">0.1UF</text>
<path d="M68220 39280
L68270 39280
L68310 39300
L68330 39320
L68350 39360
L68370 39450
L68370 39560
L68350 39640
L68330 39690
L68310 39710
L68270 39730
L68220 39730
L68180 39710
L68160 39690
L68140 39640
L68120 39560
L68120 39450
L68140 39360
L68160 39320
L68180 39300
L68220 39280
" />
<path d="M68570 39690
L68590 39710
L68570 39730
L68550 39710
L68570 39690
L68570 39730
" />
<path d="M69020 39730
L68760 39730
" />
<path d="M68890 39730
L68890 39280
L68850 39340
L68800 39390
L68760 39410
" />
<path d="M69210 39280
L69210 39640
L69230 39690
L69250 39710
L69300 39730
L69380 39730
L69420 39710
L69450 39690
L69470 39640
L69470 39280
" />
<path d="M69830 39490
L69680 39490
" />
<path d="M69680 39730
L69680 39280
L69900 39280
" />
</g>
</g>
<g style="fill:#008484; fill-opacity:0.0; 
stroke:#008484; stroke-width:0; stroke-opacity:1; 
stroke-linecap:round; stroke-linejoin:round;">
<g >
</g>
<g style="fill:#840000; fill-opacity:0.0; 
stroke:#840000; stroke-width:0; stroke-opacity:1; 
stroke-linecap:round; stroke-linejoin:round;">
</g>
<g style="fill:#840000; fill-opacity:0.0; 
stroke:#840000; stroke-width:60; stroke-opacity:1; 
stroke-linecap:round; stroke-linejoin:round;">
<circle cx="69500" cy="37700" r="300" /> 
<path d="M69500 38000
L69500 39000
" />
</g>
<g style="fill:#008484; fill-opacity:0.0; 
stroke:#008484; stroke-width:60; stroke-opacity:1; 
stroke-linecap:round; stroke-linejoin:round;">
<text x="68210" y="39010"
textLength="1420" font-size="660" lengthAdjust="spacingAndGlyphs"
text-anchor="middle" opacity="0">TP4</text>
<path d="M67570 38480
L67860 38480
" />
<path d="M67720 38980
L67720 38480
" />
<path d="M68030 38980
L68030 38480
L68220 38480
L68260 38510
L68290 38530
L68310 38580
L68310 38650
L68290 38700
L68260 38720
L68220 38740
L68030 38740
" />
<path d="M68740 38650
L68740 38980
" />
<path d="M68620 38460
L68500 38810
L68810 38810
" />
<text x="67170" y="38100"
textLength="3490" font-size="660" lengthAdjust="spacingAndGlyphs"
text-anchor="middle" opacity="0">TestPoint</text>
<path d="M65500 37570
L65780 37570
" />
<path d="M65640 38070
L65640 37570
" />
<path d="M66140 38050
L66090 38070
L66000 38070
L65950 38050
L65930 38000
L65930 37810
L65950 37760
L66000 37740
L66090 37740
L66140 37760
L66170 37810
L66170 37860
L65930 37900
" />
<path d="M66360 38050
L66400 38070
L66500 38070
L66550 38050
L66570 38000
L66570 37980
L66550 37930
L66500 37900
L66430 37900
L66380 37880
L66360 37830
L66360 37810
L66380 37760
L66430 37740
L66500 37740
L66550 37760
" />
<path d="M66710 37740
L66900 37740
" />
<path d="M66780 37570
L66780 38000
L66810 38050
L66860 38070
L66900 38070
" />
<path d="M67070 38070
L67070 37570
L67260 37570
L67310 37600
L67330 37620
L67360 37670
L67360 37740
L67330 37790
L67310 37810
L67260 37830
L67070 37830
" />
<path d="M67640 38070
L67590 38050
L67570 38020
L67550 37980
L67550 37830
L67570 37790
L67590 37760
L67640 37740
L67710 37740
L67760 37760
L67780 37790
L67810 37830
L67810 37980
L67780 38020
L67760 38050
L67710 38070
L67640 38070
" />
<path d="M68020 38070
L68020 37740
" />
<path d="M68020 37570
L68000 37600
L68020 37620
L68050 37600
L68020 37570
L68020 37620
" />
<path d="M68260 37740
L68260 38070
" />
<path d="M68260 37790
L68280 37760
L68330 37740
L68400 37740
L68450 37760
L68470 37810
L68470 38070
" />
<path d="M68640 37740
L68830 37740
" />
<path d="M68710 37570
L68710 38000
L68740 38050
L68780 38070
L68830 38070
" />
</g>
</g>
<g style="fill:#008484; fill-opacity:0.0; 
stroke:#008484; stroke-width:0; stroke-opacity:1; 
stroke-linecap:round; stroke-linejoin:round;">
<g >
</g>
<g style="fill:#840000; fill-opacity:0.0; 
stroke:#840000; stroke-width:0; stroke-opacity:1; 
stroke-linecap:round; stroke-linejoin:round;">
</g>
<g style="fill:#840000; fill-opacity:0.0; 
stroke:#840000; stroke-width:60; stroke-opacity:1; 
stroke-linecap:round; stroke-linejoin:round;">
<path style="fill:#840000; fill-opacity:0.0; 
stroke:#840000; stroke-width:60; stroke-opacity:1; 
stroke-linecap:round; stroke-linejoin:round;fill:none"
d="M 65800,46000
65500,46500
" /> 
<path style="fill:#840000; fill-opacity:0.0; 
stroke:#840000; stroke-width:60; stroke-opacity:1; 
stroke-linecap:round; stroke-linejoin:round;fill:none"
d="M 65500,45500
65500,46500
" /> 
<path style="fill:#840000; fill-opacity:0.0; 
stroke:#840000; stroke-width:60; stroke-opacity:1; 
stroke-linecap:round; stroke-linejoin:round;fill:none"
d="M 65500,46500
65200,46000
" /> 
</g>
<g style="fill:#008484; fill-opacity:0.0; 
stroke:#008484; stroke-width:60; stroke-opacity:1; 
stroke-linecap:round; stroke-linejoin:round;">
<text x="65350" y="47450"
textLength="2060" font-size="660" lengthAdjust="spacingAndGlyphs"
text-anchor="middle" opacity="0">+3V3</text>
<path d="M64460 47230
L64850 47230
" />
<path d="M64650 47420
L64650 47040
" />
<path d="M65040 46920
L65350 46920
L65180 47110
L65250 47110
L65300 47140
L65320 47160
L65350 47210
L65350 47330
L65320 47370
L65300 47400
L65250 47420
L65110 47420
L65060 47400
L65040 47370
" />
<path d="M65490 46920
L65650 47420
L65820 46920
" />
<path d="M65940 46920
L66250 46920
L66080 47110
L66150 47110
L66200 47140
L66230 47160
L66250 47210
L66250 47330
L66230 47370
L66200 47400
L66150 47420
L66010 47420
L65960 47400
L65940 47370
" />
</g>
</g>
<g style="fill:#008484; fill-opacity:0.0; 
stroke:#008484; stroke-width:0; stroke-opacity:1; 
stroke-linecap:round; stroke-linejoin:round;">
<g >
</g>
<g style="fill:#840000; fill-opacity:0.0; 
stroke:#840000; stroke-width:0; stroke-opacity:1; 
stroke-linecap:round; stroke-linejoin:round;">
</g>
<g style="fill:#840000; fill-opacity:0.0; 
stroke:#840000; stroke-width:50; stroke-opacity:1; 
stroke-linecap:round; stroke-linejoin:round;">
<path style="fill:#840000; fill-opacity:0.0; 
stroke:#840000; stroke-width:50; stroke-opacity:1; 
stroke-linecap:round; stroke-linejoin:round;fill:none"
d="M 51500,43000
61500,43000
" /> 
<path style="fill:#840000; fill-opacity:0.0; 
stroke:#840000; stroke-width:50; stroke-opacity:1; 
stroke-linecap:round; stroke-linejoin:round;fill:none"
d="M 51500,37000
51500,43000
" /> 
<path style="fill:#840000; fill-opacity:0.0; 
stroke:#840000; stroke-width:50; stroke-opacity:1; 
stroke-linecap:round; stroke-linejoin:round;fill:none"
d="M 61500,43000
61500,37000
" /> 
<path style="fill:#840000; fill-opacity:0.0; 
stroke:#840000; stroke-width:50; stroke-opacity:1; 
stroke-linecap:round; stroke-linejoin:round;fill:none"
d="M 61500,37000
51500,37000
" /> 
</g>
<g style="fill:#840000; fill-opacity:0.0; 
stroke:#840000; stroke-width:60; stroke-opacity:1; 
stroke-linecap:round; stroke-linejoin:round;">
<path d="M51500 39000
L48500 39000
" />
</g>
<g style="fill:#008484; fill-opacity:0.0; 
stroke:#008484; stroke-width:60; stroke-opacity:1; 
stroke-linecap:round; stroke-linejoin:round;">
<text x="51600" y="39290"
textLength="1860" font-size="780" lengthAdjust="spacingAndGlyphs"
text-anchor="start" opacity="0">GND</text>
<path d="M52070 38700
L52020 38670
L51930 38670
L51850 38700
L51790 38760
L51770 38810
L51740 38920
L51740 39010
L51770 39120
L51790 39180
L51850 39230
L51930 39260
L51990 39260
L52070 39230
L52100 39210
L52100 39010
L51990 39010
" />
<path d="M52360 39260
L52360 38670
L52690 39260
L52690 38670
" />
<path d="M52970 39260
L52970 38670
L53110 38670
L53200 38700
L53250 38760
L53280 38810
L53310 38920
L53310 39010
L53280 39120
L53250 39180
L53200 39230
L53110 39260
L52970 39260
" />
</g>
<g style="fill:#840000; fill-opacity:0.0; 
stroke:#840000; stroke-width:60; stroke-opacity:1; 
stroke-linecap:round; stroke-linejoin:round;">
<text x="50000" y="38900"
textLength="620" font-size="780" lengthAdjust="spacingAndGlyphs"
text-anchor="middle" opacity="0">1</text>
<path d="M50160 38870
L49830 38870
" />
<path d="M50000 38870
L50000 38280
L49940 38360
L49880 38420
L49830 38450
" />
<path d="M51500 40000
L48500 40000
" />
<path d="M48350 39850
L48650 40150
" />
<path d="M48650 39850
L48350 40150
" />
</g>
<g style="fill:#008484; fill-opacity:0.0; 
stroke:#008484; stroke-width:60; stroke-opacity:1; 
stroke-linecap:round; stroke-linejoin:round;">
<text x="51600" y="40290"
textLength="1270" font-size="780" lengthAdjust="spacingAndGlyphs"
text-anchor="start" opacity="0">NC</text>
<path d="M51770 40260
L51770 39670
L52100 40260
L52100 39670
" />
<path d="M52720 40210
L52690 40230
L52610 40260
L52550 40260
L52470 40230
L52410 40180
L52380 40120
L52360 40010
L52360 39920
L52380 39810
L52410 39760
L52470 39700
L52550 39670
L52610 39670
L52690 39700
L52720 39730
" />
</g>
<g style="fill:#840000; fill-opacity:0.0; 
stroke:#840000; stroke-width:60; stroke-opacity:1; 
stroke-linecap:round; stroke-linejoin:round;">
<text x="50000" y="39900"
textLength="620" font-size="780" lengthAdjust="spacingAndGlyphs"
text-anchor="middle" opacity="0">2</text>
<path d="M49830 39330
L49850 39310
L49910 39280
L50050 39280
L50110 39310
L50140 39330
L50160 39390
L50160 39450
L50140 39530
L49800 39870
L50160 39870
" />
<path d="M51500 41000
L48500 41000
" />
</g>
<g style="fill:#008484; fill-opacity:0.0; 
stroke:#008484; stroke-width:60; stroke-opacity:1; 
stroke-linecap:round; stroke-linejoin:round;">
<text x="51600" y="41290"
textLength="4670" font-size="780" lengthAdjust="spacingAndGlyphs"
text-anchor="start" opacity="0">OE/ST/NC</text>
<path d="M51880 40670
L51990 40670
L52050 40700
L52100 40760
L52130 40870
L52130 41070
L52100 41180
L52050 41230
L51990 41260
L51880 41260
L51820 41230
L51770 41180
L51740 41070
L51740 40870
L51770 40760
L51820 40700
L51880 40670
" />
<path d="M52380 40950
L52580 40950
" />
<path d="M52660 41260
L52380 41260
L52380 40670
L52660 40670
" />
<path d="M53340 40640
L52830 41400
" />
<path d="M53510 41230
L53590 41260
L53730 41260
L53790 41230
L53820 41210
L53840 41150
L53840 41090
L53820 41040
L53790 41010
L53730 40980
L53620 40950
L53560 40920
L53540 40900
L53510 40840
L53510 40780
L53540 40730
L53560 40700
L53620 40670
L53760 40670
L53840 40700
" />
<path d="M54010 40670
L54350 40670
" />
<path d="M54180 41260
L54180 40670
" />
<path d="M54970 40640
L54460 41400
" />
<path d="M55170 41260
L55170 40670
L55500 41260
L55500 40670
" />
<path d="M56120 41210
L56090 41230
L56010 41260
L55950 41260
L55870 41230
L55810 41180
L55780 41120
L55760 41010
L55760 40920
L55780 40810
L55810 40760
L55870 40700
L55950 40670
L56010 40670
L56090 40700
L56120 40730
" />
</g>
<g style="fill:#840000; fill-opacity:0.0; 
stroke:#840000; stroke-width:60; stroke-opacity:1; 
stroke-linecap:round; stroke-linejoin:round;">
<text x="50000" y="40900"
textLength="620" font-size="780" lengthAdjust="spacingAndGlyphs"
text-anchor="middle" opacity="0">3</text>
<path d="M49800 40280
L50160 40280
L49970 40500
L50050 40500
L50110 40530
L50140 40560
L50160 40610
L50160 40750
L50140 40810
L50110 40840
L50050 40870
L49880 40870
L49830 40840
L49800 40810
" />
<path d="M61500 41000
L64500 41000
" />
</g>
<g style="fill:#008484; fill-opacity:0.0; 
stroke:#008484; stroke-width:60; stroke-opacity:1; 
stroke-linecap:round; stroke-linejoin:round;">
<text x="61400" y="41290"
textLength="1750" font-size="780" lengthAdjust="spacingAndGlyphs"
text-anchor="end" opacity="0">VDD</text>
<path d="M59740 40670
L59930 41260
L60130 40670
" />
<path d="M60330 41260
L60330 40670
L60470 40670
L60550 40700
L60610 40760
L60630 40810
L60660 40920
L60660 41010
L60630 41120
L60610 41180
L60550 41230
L60470 41260
L60330 41260
" />
<path d="M60920 41260
L60920 40670
L61060 40670
L61140 40700
L61200 40760
L61220 40810
L61250 40920
L61250 41010
L61220 41120
L61200 41180
L61140 41230
L61060 41260
L60920 41260
" />
</g>
<g style="fill:#840000; fill-opacity:0.0; 
stroke:#840000; stroke-width:60; stroke-opacity:1; 
stroke-linecap:round; stroke-linejoin:round;">
<text x="63000" y="40900"
textLength="620" font-size="780" lengthAdjust="spacingAndGlyphs"
text-anchor="middle" opacity="0">4</text>
<path d="M63110 40470
L63110 40870
" />
<path d="M62970 40250
L62830 40670
L63190 40670
" />
<path d="M61500 39000
L64500 39000
" />
</g>
<g style="fill:#008484; fill-opacity:0.0; 
stroke:#008484; stroke-width:60; stroke-opacity:1; 
stroke-linecap:round; stroke-linejoin:round;">
<text x="61400" y="39290"
textLength="1750" font-size="780" lengthAdjust="spacingAndGlyphs"
text-anchor="end" opacity="0">OUT</text>
<path d="M59930 38670
L60040 38670
L60100 38700
L60160 38760
L60190 38870
L60190 39070
L60160 39180
L60100 39230
L60040 39260
L59930 39260
L59880 39230
L59820 39180
L59790 39070
L59790 38870
L59820 38760
L59880 38700
L59930 38670
" />
<path d="M60440 38670
L60440 39150
L60470 39210
L60490 39230
L60550 39260
L60660 39260
L60720 39230
L60750 39210
L60780 39150
L60780 38670
" />
<path d="M60970 38670
L61310 38670
" />
<path d="M61140 39260
L61140 38670
" />
</g>
<g style="fill:#840000; fill-opacity:0.0; 
stroke:#840000; stroke-width:60; stroke-opacity:1; 
stroke-linecap:round; stroke-linejoin:round;">
<text x="63000" y="38900"
textLength="620" font-size="780" lengthAdjust="spacingAndGlyphs"
text-anchor="middle" opacity="0">5</text>
<path d="M63140 38280
L62850 38280
L62830 38560
L62850 38530
L62910 38500
L63050 38500
L63110 38530
L63140 38560
L63160 38610
L63160 38750
L63140 38810
L63110 38840
L63050 38870
L62910 38870
L62850 38840
L62830 38810
" />
</g>
<g style="fill:#008484; fill-opacity:0.0; 
stroke:#008484; stroke-width:60; stroke-opacity:1; 
stroke-linecap:round; stroke-linejoin:round;">
<text x="56500" y="35460"
textLength="1260" font-size="800" lengthAdjust="spacingAndGlyphs"
text-anchor="middle" opacity="0">U5</text>
<path d="M56040 34830
L56040 35310
L56070 35370
L56100 35400
L56150 35430
L56270 35430
L56320 35400
L56350 35370
L56380 35310
L56380 34830
" />
<path d="M56950 34830
L56670 34830
L56640 35110
L56670 35080
L56720 35060
L56870 35060
L56920 35080
L56950 35110
L56980 35170
L56980 35310
L56950 35370
L56920 35400
L56870 35430
L56720 35430
L56670 35400
L56640 35370
" />
<text x="56500" y="36520"
textLength="15660" font-size="800" lengthAdjust="spacingAndGlyphs"
text-anchor="middle" opacity="0">SIT2001BI-S2-33S-100.000000D</text>
<path d="M48810 36460
L48900 36490
L49040 36490
L49100 36460
L49120 36430
L49150 36370
L49150 36320
L49120 36260
L49100 36230
L49040 36200
L48920 36170
L48870 36140
L48840 36120
L48810 36060
L48810 36000
L48840 35940
L48870 35920
L48920 35890
L49070 35890
L49150 35920
" />
<path d="M49410 36490
L49410 35890
" />
<path d="M49610 35890
L49950 35890
" />
<path d="M49780 36490
L49780 35890
" />
<path d="M50120 35940
L50150 35920
L50210 35890
L50350 35890
L50410 35920
L50440 35940
L50470 36000
L50470 36060
L50440 36140
L50100 36490
L50470 36490
" />
<path d="M50840 35890
L50900 35890
L50950 35920
L50980 35940
L51010 36000
L51040 36120
L51040 36260
L51010 36370
L50980 36430
L50950 36460
L50900 36490
L50840 36490
L50780 36460
L50750 36430
L50720 36370
L50700 36260
L50700 36120
L50720 36000
L50750 35940
L50780 35920
L50840 35890
" />
<path d="M51410 35890
L51470 35890
L51520 35920
L51550 35940
L51580 36000
L51610 36120
L51610 36260
L51580 36370
L51550 36430
L51520 36460
L51470 36490
L51410 36490
L51350 36460
L51320 36430
L51300 36370
L51270 36260
L51270 36120
L51300 36000
L51320 35940
L51350 35920
L51410 35890
" />
<path d="M52180 36490
L51840 36490
" />
<path d="M52010 36490
L52010 35890
L51950 35970
L51900 36030
L51840 36060
" />
<path d="M52640 36170
L52720 36200
L52750 36230
L52780 36290
L52780 36370
L52750 36430
L52720 36460
L52670 36490
L52440 36490
L52440 35890
L52640 35890
L52700 35920
L52720 35940
L52750 36000
L52750 36060
L52720 36120
L52700 36140
L52640 36170
L52440 36170
" />
<path d="M53040 36490
L53040 35890
" />
<path d="M53320 36260
L53780 36260
" />
<path d="M54040 36460
L54120 36490
L54270 36490
L54320 36460
L54350 36430
L54380 36370
L54380 36320
L54350 36260
L54320 36230
L54270 36200
L54150 36170
L54100 36140
L54070 36120
L54040 36060
L54040 36000
L54070 35940
L54100 35920
L54150 35890
L54300 35890
L54380 35920
" />
<path d="M54610 35940
L54640 35920
L54700 35890
L54840 35890
L54900 35920
L54920 35940
L54950 36000
L54950 36060
L54920 36140
L54580 36490
L54950 36490
" />
<path d="M55210 36260
L55670 36260
" />
<path d="M55900 35890
L56270 35890
L56070 36120
L56150 36120
L56210 36140
L56240 36170
L56270 36230
L56270 36370
L56240 36430
L56210 36460
L56150 36490
L55980 36490
L55920 36460
L55900 36430
" />
<path d="M56470 35890
L56840 35890
L56640 36120
L56720 36120
L56780 36140
L56810 36170
L56840 36230
L56840 36370
L56810 36430
L56780 36460
L56720 36490
L56550 36490
L56500 36460
L56470 36430
" />
<path d="M57070 36460
L57150 36490
L57300 36490
L57350 36460
L57380 36430
L57410 36370
L57410 36320
L57380 36260
L57350 36230
L57300 36200
L57180 36170
L57120 36140
L57100 36120
L57070 36060
L57070 36000
L57100 35940
L57120 35920
L57180 35890
L57320 35890
L57410 35920
" />
<path d="M57670 36260
L58120 36260
" />
<path d="M58720 36490
L58380 36490
" />
<path d="M58550 36490
L58550 35890
L58500 35970
L58440 36030
L58380 36060
" />
<path d="M59100 35890
L59150 35890
L59210 35920
L59240 35940
L59270 36000
L59300 36120
L59300 36260
L59270 36370
L59240 36430
L59210 36460
L59150 36490
L59100 36490
L59040 36460
L59010 36430
L58980 36370
L58950 36260
L58950 36120
L58980 36000
L59010 35940
L59040 35920
L59100 35890
" />
<path d="M59670 35890
L59720 35890
L59780 35920
L59810 35940
L59840 36000
L59870 36120
L59870 36260
L59840 36370
L59810 36430
L59780 36460
L59720 36490
L59670 36490
L59610 36460
L59580 36430
L59550 36370
L59520 36260
L59520 36120
L59550 36000
L59580 35940
L59610 35920
L59670 35890
" />
<path d="M60120 36430
L60150 36460
L60120 36490
L60100 36460
L60120 36430
L60120 36490
" />
<path d="M60520 35890
L60580 35890
L60640 35920
L60670 35940
L60700 36000
L60720 36120
L60720 36260
L60700 36370
L60670 36430
L60640 36460
L60580 36490
L60520 36490
L60470 36460
L60440 36430
L60410 36370
L60380 36260
L60380 36120
L60410 36000
L60440 35940
L60470 35920
L60520 35890
" />
<path d="M61100 35890
L61150 35890
L61210 35920
L61240 35940
L61270 36000
L61300 36120
L61300 36260
L61270 36370
L61240 36430
L61210 36460
L61150 36490
L61100 36490
L61040 36460
L61010 36430
L60980 36370
L60950 36260
L60950 36120
L60980 36000
L61010 35940
L61040 35920
L61100 35890
" />
<path d="M61670 35890
L61720 35890
L61780 35920
L61810 35940
L61840 36000
L61870 36120
L61870 36260
L61840 36370
L61810 36430
L61780 36460
L61720 36490
L61670 36490
L61610 36460
L61580 36430
L61550 36370
L61520 36260
L61520 36120
L61550 36000
L61580 35940
L61610 35920
L61670 35890
" />
<path d="M62240 35890
L62300 35890
L62350 35920
L62380 35940
L62410 36000
L62440 36120
L62440 36260
L62410 36370
L62380 36430
L62350 36460
L62300 36490
L62240 36490
L62180 36460
L62150 36430
L62120 36370
L62100 36260
L62100 36120
L62120 36000
L62150 35940
L62180 35920
L62240 35890
" />
<path d="M62810 35890
L62870 35890
L62920 35920
L62950 35940
L62980 36000
L63010 36120
L63010 36260
L62980 36370
L62950 36430
L62920 36460
L62870 36490
L62810 36490
L62750 36460
L62720 36430
L62700 36370
L62670 36260
L62670 36120
L62700 36000
L62720 35940
L62750 35920
L62810 35890
" />
<path d="M63380 35890
L63440 35890
L63500 35920
L63520 35940
L63550 36000
L63580 36120
L63580 36260
L63550 36370
L63520 36430
L63500 36460
L63440 36490
L63380 36490
L63320 36460
L63300 36430
L63270 36370
L63240 36260
L63240 36120
L63270 36000
L63300 35940
L63320 35920
L63380 35890
" />
<path d="M63840 36490
L63840 35890
L63980 35890
L64070 35920
L64120 35970
L64150 36030
L64180 36140
L64180 36230
L64150 36340
L64120 36400
L64070 36460
L63980 36490
L63840 36490
" />
</g>
</g>
<g style="fill:#008484; fill-opacity:0.0; 
stroke:#008484; stroke-width:0; stroke-opacity:1; 
stroke-linecap:round; stroke-linejoin:round;">
<g >
</g>
<g style="fill:#840000; fill-opacity:0.0; 
stroke:#840000; stroke-width:0; stroke-opacity:1; 
stroke-linecap:round; stroke-linejoin:round;">
</g>
<g style="fill:#840000; fill-opacity:0.0; 
stroke:#840000; stroke-width:60; stroke-opacity:1; 
stroke-linecap:round; stroke-linejoin:round;">
<path style="fill:#840000; fill-opacity:0.0; 
stroke:#840000; stroke-width:60; stroke-opacity:1; 
stroke-linecap:round; stroke-linejoin:round;fill:none"
d="M 47000,39000
46500,39000
46500,39500
46000,39000
46500,38500
46500,39000
" /> 
</g>
<g style="fill:#008484; fill-opacity:0.0; 
stroke:#008484; stroke-width:60; stroke-opacity:1; 
stroke-linecap:round; stroke-linejoin:round;">
<g transform="rotate(-90 45240 39050)">
<text x="45240" y="39300"
textLength="1580" font-size="660" lengthAdjust="spacingAndGlyphs"
text-anchor="middle" opacity="0">GND</text>
</g>
<path d="M44990 39430
L44960 39470
L44960 39550
L44990 39620
L45030 39660
L45080 39690
L45180 39710
L45250 39710
L45340 39690
L45390 39660
L45440 39620
L45460 39550
L45460 39500
L45440 39430
L45410 39400
L45250 39400
L45250 39500
" />
<path d="M45460 39190
L44960 39190
L45460 38900
L44960 38900
" />
<path d="M45460 38660
L44960 38660
L44960 38550
L44990 38470
L45030 38430
L45080 38400
L45180 38380
L45250 38380
L45340 38400
L45390 38430
L45440 38470
L45460 38550
L45460 38660
" />
</g>
</g>
<g style="fill:#008484; fill-opacity:0.0; 
stroke:#008484; stroke-width:0; stroke-opacity:1; 
stroke-linecap:round; stroke-linejoin:round;">
<g >
</g>
<g style="fill:#840000; fill-opacity:0.0; 
stroke:#840000; stroke-width:0; stroke-opacity:1; 
stroke-linecap:round; stroke-linejoin:round;">
</g>
<g style="fill:#840000; fill-opacity:0.0; 
stroke:#840000; stroke-width:60; stroke-opacity:1; 
stroke-linecap:round; stroke-linejoin:round;">
<path style="fill:#840000; fill-opacity:0.0; 
stroke:#840000; stroke-width:60; stroke-opacity:1; 
stroke-linecap:round; stroke-linejoin:round;fill:none"
d="M 53000,44000
53150,43600
" /> 
<path style="fill:#840000; fill-opacity:0.0; 
stroke:#840000; stroke-width:60; stroke-opacity:1; 
stroke-linecap:round; stroke-linejoin:round;fill:none"
d="M 53150,43600
53400,44400
" /> 
<path style="fill:#840000; fill-opacity:0.0; 
stroke:#840000; stroke-width:60; stroke-opacity:1; 
stroke-linecap:round; stroke-linejoin:round;fill:none"
d="M 53400,44400
53650,43600
" /> 
<path style="fill:#840000; fill-opacity:0.0; 
stroke:#840000; stroke-width:60; stroke-opacity:1; 
stroke-linecap:round; stroke-linejoin:round;fill:none"
d="M 53650,43600
53900,44400
" /> 
<path style="fill:#840000; fill-opacity:0.0; 
stroke:#840000; stroke-width:60; stroke-opacity:1; 
stroke-linecap:round; stroke-linejoin:round;fill:none"
d="M 53900,44400
54150,43600
" /> 
<path style="fill:#840000; fill-opacity:0.0; 
stroke:#840000; stroke-width:60; stroke-opacity:1; 
stroke-linecap:round; stroke-linejoin:round;fill:none"
d="M 54150,43600
54400,44400
" /> 
<path style="fill:#840000; fill-opacity:0.0; 
stroke:#840000; stroke-width:60; stroke-opacity:1; 
stroke-linecap:round; stroke-linejoin:round;fill:none"
d="M 54400,44400
54650,43600
" /> 
<path style="fill:#840000; fill-opacity:0.0; 
stroke:#840000; stroke-width:60; stroke-opacity:1; 
stroke-linecap:round; stroke-linejoin:round;fill:none"
d="M 54650,43600
54900,44400
" /> 
<path style="fill:#840000; fill-opacity:0.0; 
stroke:#840000; stroke-width:60; stroke-opacity:1; 
stroke-linecap:round; stroke-linejoin:round;fill:none"
d="M 54900,44400
55000,44000
" /> 
<path d="M53000 44000
L52000 44000
" />
<path d="M55000 44000
L56000 44000
" />
</g>
<g style="fill:#008484; fill-opacity:0.0; 
stroke:#008484; stroke-width:60; stroke-opacity:1; 
stroke-linecap:round; stroke-linejoin:round;">
<text x="54000" y="46250"
textLength="1370" font-size="600" lengthAdjust="spacingAndGlyphs"
text-anchor="middle" opacity="0">R24</text>
<path d="M53710 46230
L53560 46010
" />
<path d="M53450 46230
L53450 45780
L53620 45780
L53660 45800
L53680 45820
L53710 45860
L53710 45930
L53680 45970
L53660 45990
L53620 46010
L53450 46010
" />
<path d="M53880 45820
L53900 45800
L53940 45780
L54050 45780
L54090 45800
L54110 45820
L54130 45860
L54130 45910
L54110 45970
L53860 46230
L54130 46230
" />
<path d="M54520 45930
L54520 46230
" />
<path d="M54410 45760
L54310 46080
L54580 46080
" />
<text x="54000" y="45250"
textLength="1280" font-size="600" lengthAdjust="spacingAndGlyphs"
text-anchor="middle" opacity="0">10k</text>
<path d="M53730 45230
L53470 45230
" />
<path d="M53600 45230
L53600 44780
L53560 44840
L53510 44890
L53470 44910
" />
<path d="M54010 44780
L54050 44780
L54090 44800
L54110 44820
L54130 44860
L54160 44950
L54160 45060
L54130 45140
L54110 45190
L54090 45210
L54050 45230
L54010 45230
L53960 45210
L53940 45190
L53920 45140
L53900 45060
L53900 44950
L53920 44860
L53940 44820
L53960 44800
L54010 44780
" />
<path d="M54350 45230
L54350 44780
" />
<path d="M54390 45060
L54520 45230
" />
<path d="M54520 44930
L54350 45100
" />
</g>
<g style="fill:#840084; fill-opacity:0.0; 
stroke:#840084; stroke-width:60; stroke-opacity:1; 
stroke-linecap:round; stroke-linejoin:round;">
<text x="54000" y="43120"
textLength="520" font-size="800" lengthAdjust="spacingAndGlyphs"
text-anchor="middle" opacity="0"> </text>
</g>
</g>
<g style="fill:#840084; fill-opacity:0.0; 
stroke:#840084; stroke-width:60; stroke-opacity:1; 
stroke-linecap:round; stroke-linejoin:round;">
</g>
<g style="fill:#008400; fill-opacity:0.0; 
stroke:#008400; stroke-width:60; stroke-opacity:1; 
stroke-linecap:round; stroke-linejoin:round;">
<path d="M69500 39000
L73500 39000
" />
<path d="M65500 44000
L65500 45500
" />
<path d="M56000 44000
L65500 44000
" />
<path d="M48500 44000
L52000 44000
" />
<path d="M65500 41000
L65500 44000
" />
<path d="M64500 39000
L69500 39000
" />
<path d="M64500 41000
L65500 41000
" />
<path d="M48500 44000
L48500 41000
" />
<path d="M47000 39000
L48500 39000
" />
<path d="M69500 41000
L72000 41000
" />
<path d="M65500 41000
L66500 41000
" />
</g>
<g style="fill:#848400; fill-opacity:0.0; 
stroke:#848400; stroke-width:60; stroke-opacity:1; 
stroke-linecap:round; stroke-linejoin:round;">
<text x="74100" y="39250"
textLength="2080" font-size="660" lengthAdjust="spacingAndGlyphs"
text-anchor="start" opacity="0">OSCO</text>
<path d="M74340 38720
L74430 38720
L74480 38750
L74530 38790
L74550 38890
L74550 39050
L74530 39150
L74480 39200
L74430 39220
L74340 39220
L74290 39200
L74240 39150
L74220 39050
L74220 38890
L74240 38790
L74290 38750
L74340 38720
" />
<path d="M74740 39200
L74820 39220
L74930 39220
L74980 39200
L75010 39170
L75030 39130
L75030 39080
L75010 39030
L74980 39010
L74930 38980
L74840 38960
L74790 38940
L74770 38910
L74740 38860
L74740 38820
L74770 38770
L74790 38750
L74840 38720
L74960 38720
L75030 38750
" />
<path d="M75530 39170
L75510 39200
L75430 39220
L75390 39220
L75320 39200
L75270 39150
L75240 39100
L75220 39010
L75220 38940
L75240 38840
L75270 38790
L75320 38750
L75390 38720
L75430 38720
L75510 38750
L75530 38770
" />
<path d="M75840 38720
L75930 38720
L75980 38750
L76030 38790
L76050 38890
L76050 39050
L76030 39150
L75980 39200
L75930 39220
L75840 39220
L75790 39200
L75740 39150
L75720 39050
L75720 38890
L75740 38790
L75790 38750
L75840 38720
" />
</g>
<g style="fill:#848400; fill-opacity:0.0; 
stroke:#848400; stroke-width:100; stroke-opacity:1; 
stroke-linecap:round; stroke-linejoin:round;">
<path style="fill:#848400; fill-opacity:0.0; 
stroke:#848400; stroke-width:100; stroke-opacity:1; 
stroke-linecap:round; stroke-linejoin:round;fill:none"
d="M 73500,39000
73750,39250
74000,39250
74000,38750
73750,38750
Z" /> 
</g>
<g style="fill:#848400; fill-opacity:0.0; 
stroke:#848400; stroke-width:0; stroke-opacity:1; 
stroke-linecap:round; stroke-linejoin:round;">
</g>
<g style="fill:#008400; fill-opacity:0.0; 
stroke:#008400; stroke-width:0; stroke-opacity:1; 
stroke-linecap:round; stroke-linejoin:round;">
</g>
<g style="fill:#008400; fill-opacity:1.0; 
stroke:#008400; stroke-width:100; stroke-opacity:1; 
stroke-linecap:round; stroke-linejoin:round;">
<circle cx="65500" cy="44000" r="200" /> 
</g>
<g style="fill:#008400; fill-opacity:1.0; 
stroke:#008400; stroke-width:0; stroke-opacity:1; 
stroke-linecap:round; stroke-linejoin:round;">
</g>
<g style="fill:#008400; fill-opacity:1.0; 
stroke:#008400; stroke-width:100; stroke-opacity:1; 
stroke-linecap:round; stroke-linejoin:round;">
<circle cx="69500" cy="39000" r="200" /> 
</g>
<g style="fill:#008400; fill-opacity:1.0; 
stroke:#008400; stroke-width:0; stroke-opacity:1; 
stroke-linecap:round; stroke-linejoin:round;">
</g>
<g style="fill:#008400; fill-opacity:1.0; 
stroke:#008400; stroke-width:100; stroke-opacity:1; 
stroke-linecap:round; stroke-linejoin:round;">
<circle cx="65500" cy="41000" r="200" /> 
</g> 
</svg>
