<?xml version="1.0" standalone="no"?>
 <!DOCTYPE svg PUBLIC "-//W3C//DTD SVG 1.1//EN" 
 "http://www.w3.org/Graphics/SVG/1.1/DTD/svg11.dtd"> 
<svg
  xmlns:svg="http://www.w3.org/2000/svg"
  xmlns="http://www.w3.org/2000/svg"
  xmlns:xlink="http://www.w3.org/1999/xlink"
  version="1.1"
  width="29.700220cm" height="21.000720cm" viewBox="0 0 116930 82680">
<title>SVG Picture created as power-regulator-3.3V Regulator.svg date 2020/08/27 14:04:22 </title>
  <desc>Picture generated by Eeschema-SVG </desc>
<g style="fill:#000000; fill-opacity:1;stroke:#000000; stroke-opacity:1;
stroke-linecap:round; stroke-linejoin:round;"
 transform="translate(0 0) scale(1 1)">
</g>
<g style="fill:#000000; fill-opacity:0.0; 
stroke:#000000; stroke-width:-10; stroke-opacity:1; 
stroke-linecap:round; stroke-linejoin:round;">
</g>
<g style="fill:#840000; fill-opacity:0.0; 
stroke:#840000; stroke-width:-10; stroke-opacity:1; 
stroke-linecap:round; stroke-linejoin:round;">
</g>
<g style="fill:#840000; fill-opacity:0.0; 
stroke:#840000; stroke-width:100; stroke-opacity:1; 
stroke-linecap:round; stroke-linejoin:round;">
</g>
<g style="fill:#840000; fill-opacity:0.0; 
stroke:#840000; stroke-width:60; stroke-opacity:1; 
stroke-linecap:round; stroke-linejoin:round;">
<rect x="69690" y="65360" width="42520" height="12600" rx="0" />
</g>
<g style="fill:#840000; fill-opacity:0.0; 
stroke:#840000; stroke-width:100; stroke-opacity:1; 
stroke-linecap:round; stroke-linejoin:round;">
</g>
<g style="fill:#840000; fill-opacity:0.0; 
stroke:#840000; stroke-width:60; stroke-opacity:1; 
stroke-linecap:round; stroke-linejoin:round;">
<rect x="3940" y="3940" width="109050" height="74800" rx="0" />
</g>
<g style="fill:#840000; fill-opacity:0.0; 
stroke:#840000; stroke-width:100; stroke-opacity:1; 
stroke-linecap:round; stroke-linejoin:round;">
</g>
<g style="fill:#840000; fill-opacity:0.0; 
stroke:#840000; stroke-width:60; stroke-opacity:1; 
stroke-linecap:round; stroke-linejoin:round;">
<rect x="4720" y="4720" width="107490" height="73240" rx="0" />
</g>
<g style="fill:#840000; fill-opacity:0.0; 
stroke:#840000; stroke-width:100; stroke-opacity:1; 
stroke-linecap:round; stroke-linejoin:round;">
</g>
<g style="fill:#840000; fill-opacity:0.0; 
stroke:#840000; stroke-width:60; stroke-opacity:1; 
stroke-linecap:round; stroke-linejoin:round;">
<path d="M23620 4720
L23620 3940
" />
</g>
<g style="fill:#840000; fill-opacity:0.0; 
stroke:#840000; stroke-width:100; stroke-opacity:1; 
stroke-linecap:round; stroke-linejoin:round;">
</g>
<g style="fill:#840000; fill-opacity:0.0; 
stroke:#840000; stroke-width:60; stroke-opacity:1; 
stroke-linecap:round; stroke-linejoin:round;">
<path d="M43310 4720
L43310 3940
" />
</g>
<g style="fill:#840000; fill-opacity:0.0; 
stroke:#840000; stroke-width:100; stroke-opacity:1; 
stroke-linecap:round; stroke-linejoin:round;">
</g>
<g style="fill:#840000; fill-opacity:0.0; 
stroke:#840000; stroke-width:60; stroke-opacity:1; 
stroke-linecap:round; stroke-linejoin:round;">
<path d="M62990 4720
L62990 3940
" />
</g>
<g style="fill:#840000; fill-opacity:0.0; 
stroke:#840000; stroke-width:100; stroke-opacity:1; 
stroke-linecap:round; stroke-linejoin:round;">
</g>
<g style="fill:#840000; fill-opacity:0.0; 
stroke:#840000; stroke-width:60; stroke-opacity:1; 
stroke-linecap:round; stroke-linejoin:round;">
<path d="M82680 4720
L82680 3940
" />
</g>
<g style="fill:#840000; fill-opacity:0.0; 
stroke:#840000; stroke-width:100; stroke-opacity:1; 
stroke-linecap:round; stroke-linejoin:round;">
</g>
<g style="fill:#840000; fill-opacity:0.0; 
stroke:#840000; stroke-width:60; stroke-opacity:1; 
stroke-linecap:round; stroke-linejoin:round;">
<path d="M102360 4720
L102360 3940
" />
</g>
<g style="fill:#840000; fill-opacity:0.0; 
stroke:#840000; stroke-width:100; stroke-opacity:1; 
stroke-linecap:round; stroke-linejoin:round;">
</g>
<g style="fill:#840000; fill-opacity:0.0; 
stroke:#840000; stroke-width:60; stroke-opacity:1; 
stroke-linecap:round; stroke-linejoin:round;">
<text x="13780" y="4580"
textLength="550" font-size="680" lengthAdjust="spacingAndGlyphs"
text-anchor="start" opacity="0">1</text>
<path d="M14190 4560
L13900 4560
" />
<path d="M14050 4560
L14050 4050
L14000 4120
L13950 4170
L13900 4190
" />
</g>
<g style="fill:#840000; fill-opacity:0.0; 
stroke:#840000; stroke-width:100; stroke-opacity:1; 
stroke-linecap:round; stroke-linejoin:round;">
</g>
<g style="fill:#840000; fill-opacity:0.0; 
stroke:#840000; stroke-width:60; stroke-opacity:1; 
stroke-linecap:round; stroke-linejoin:round;">
<text x="33460" y="4580"
textLength="550" font-size="680" lengthAdjust="spacingAndGlyphs"
text-anchor="start" opacity="0">2</text>
<path d="M33580 4090
L33610 4070
L33660 4050
L33780 4050
L33830 4070
L33850 4090
L33870 4140
L33870 4190
L33850 4260
L33560 4560
L33870 4560
" />
</g>
<g style="fill:#840000; fill-opacity:0.0; 
stroke:#840000; stroke-width:100; stroke-opacity:1; 
stroke-linecap:round; stroke-linejoin:round;">
</g>
<g style="fill:#840000; fill-opacity:0.0; 
stroke:#840000; stroke-width:60; stroke-opacity:1; 
stroke-linecap:round; stroke-linejoin:round;">
<text x="53150" y="4580"
textLength="550" font-size="680" lengthAdjust="spacingAndGlyphs"
text-anchor="start" opacity="0">3</text>
<path d="M53250 4050
L53560 4050
L53390 4240
L53470 4240
L53520 4260
L53540 4290
L53560 4340
L53560 4460
L53540 4510
L53520 4530
L53470 4560
L53320 4560
L53270 4530
L53250 4510
" />
</g>
<g style="fill:#840000; fill-opacity:0.0; 
stroke:#840000; stroke-width:100; stroke-opacity:1; 
stroke-linecap:round; stroke-linejoin:round;">
</g>
<g style="fill:#840000; fill-opacity:0.0; 
stroke:#840000; stroke-width:60; stroke-opacity:1; 
stroke-linecap:round; stroke-linejoin:round;">
<text x="72830" y="4580"
textLength="550" font-size="680" lengthAdjust="spacingAndGlyphs"
text-anchor="start" opacity="0">4</text>
<path d="M73200 4220
L73200 4560
" />
<path d="M73070 4020
L72950 4390
L73270 4390
" />
</g>
<g style="fill:#840000; fill-opacity:0.0; 
stroke:#840000; stroke-width:100; stroke-opacity:1; 
stroke-linecap:round; stroke-linejoin:round;">
</g>
<g style="fill:#840000; fill-opacity:0.0; 
stroke:#840000; stroke-width:60; stroke-opacity:1; 
stroke-linecap:round; stroke-linejoin:round;">
<text x="92520" y="4580"
textLength="550" font-size="680" lengthAdjust="spacingAndGlyphs"
text-anchor="start" opacity="0">5</text>
<path d="M92910 4050
L92670 4050
L92640 4290
L92670 4260
L92720 4240
L92840 4240
L92890 4260
L92910 4290
L92930 4340
L92930 4460
L92910 4510
L92890 4530
L92840 4560
L92720 4560
L92670 4530
L92640 4510
" />
</g>
<g style="fill:#840000; fill-opacity:0.0; 
stroke:#840000; stroke-width:100; stroke-opacity:1; 
stroke-linecap:round; stroke-linejoin:round;">
</g>
<g style="fill:#840000; fill-opacity:0.0; 
stroke:#840000; stroke-width:60; stroke-opacity:1; 
stroke-linecap:round; stroke-linejoin:round;">
<text x="112200" y="4580"
textLength="550" font-size="680" lengthAdjust="spacingAndGlyphs"
text-anchor="start" opacity="0">6</text>
<path d="M112570 4050
L112470 4050
L112420 4070
L112400 4090
L112350 4170
L112320 4260
L112320 4460
L112350 4510
L112370 4530
L112420 4560
L112520 4560
L112570 4530
L112590 4510
L112610 4460
L112610 4340
L112590 4290
L112570 4260
L112520 4240
L112420 4240
L112370 4260
L112350 4290
L112320 4340
" />
</g>
<g style="fill:#840000; fill-opacity:0.0; 
stroke:#840000; stroke-width:100; stroke-opacity:1; 
stroke-linecap:round; stroke-linejoin:round;">
</g>
<g style="fill:#840000; fill-opacity:0.0; 
stroke:#840000; stroke-width:60; stroke-opacity:1; 
stroke-linecap:round; stroke-linejoin:round;">
<path d="M23620 77960
L23620 78740
" />
</g>
<g style="fill:#840000; fill-opacity:0.0; 
stroke:#840000; stroke-width:100; stroke-opacity:1; 
stroke-linecap:round; stroke-linejoin:round;">
</g>
<g style="fill:#840000; fill-opacity:0.0; 
stroke:#840000; stroke-width:60; stroke-opacity:1; 
stroke-linecap:round; stroke-linejoin:round;">
<path d="M43310 77960
L43310 78740
" />
</g>
<g style="fill:#840000; fill-opacity:0.0; 
stroke:#840000; stroke-width:100; stroke-opacity:1; 
stroke-linecap:round; stroke-linejoin:round;">
</g>
<g style="fill:#840000; fill-opacity:0.0; 
stroke:#840000; stroke-width:60; stroke-opacity:1; 
stroke-linecap:round; stroke-linejoin:round;">
<path d="M62990 77960
L62990 78740
" />
</g>
<g style="fill:#840000; fill-opacity:0.0; 
stroke:#840000; stroke-width:100; stroke-opacity:1; 
stroke-linecap:round; stroke-linejoin:round;">
</g>
<g style="fill:#840000; fill-opacity:0.0; 
stroke:#840000; stroke-width:60; stroke-opacity:1; 
stroke-linecap:round; stroke-linejoin:round;">
<path d="M82680 77960
L82680 78740
" />
</g>
<g style="fill:#840000; fill-opacity:0.0; 
stroke:#840000; stroke-width:100; stroke-opacity:1; 
stroke-linecap:round; stroke-linejoin:round;">
</g>
<g style="fill:#840000; fill-opacity:0.0; 
stroke:#840000; stroke-width:60; stroke-opacity:1; 
stroke-linecap:round; stroke-linejoin:round;">
<path d="M102360 77960
L102360 78740
" />
</g>
<g style="fill:#840000; fill-opacity:0.0; 
stroke:#840000; stroke-width:100; stroke-opacity:1; 
stroke-linecap:round; stroke-linejoin:round;">
</g>
<g style="fill:#840000; fill-opacity:0.0; 
stroke:#840000; stroke-width:60; stroke-opacity:1; 
stroke-linecap:round; stroke-linejoin:round;">
<text x="13780" y="78600"
textLength="550" font-size="680" lengthAdjust="spacingAndGlyphs"
text-anchor="start" opacity="0">1</text>
<path d="M14190 78580
L13900 78580
" />
<path d="M14050 78580
L14050 78070
L14000 78140
L13950 78190
L13900 78210
" />
</g>
<g style="fill:#840000; fill-opacity:0.0; 
stroke:#840000; stroke-width:100; stroke-opacity:1; 
stroke-linecap:round; stroke-linejoin:round;">
</g>
<g style="fill:#840000; fill-opacity:0.0; 
stroke:#840000; stroke-width:60; stroke-opacity:1; 
stroke-linecap:round; stroke-linejoin:round;">
<text x="33460" y="78600"
textLength="550" font-size="680" lengthAdjust="spacingAndGlyphs"
text-anchor="start" opacity="0">2</text>
<path d="M33580 78110
L33610 78090
L33660 78070
L33780 78070
L33830 78090
L33850 78110
L33870 78160
L33870 78210
L33850 78280
L33560 78580
L33870 78580
" />
</g>
<g style="fill:#840000; fill-opacity:0.0; 
stroke:#840000; stroke-width:100; stroke-opacity:1; 
stroke-linecap:round; stroke-linejoin:round;">
</g>
<g style="fill:#840000; fill-opacity:0.0; 
stroke:#840000; stroke-width:60; stroke-opacity:1; 
stroke-linecap:round; stroke-linejoin:round;">
<text x="53150" y="78600"
textLength="550" font-size="680" lengthAdjust="spacingAndGlyphs"
text-anchor="start" opacity="0">3</text>
<path d="M53250 78070
L53560 78070
L53390 78260
L53470 78260
L53520 78280
L53540 78310
L53560 78360
L53560 78480
L53540 78530
L53520 78550
L53470 78580
L53320 78580
L53270 78550
L53250 78530
" />
</g>
<g style="fill:#840000; fill-opacity:0.0; 
stroke:#840000; stroke-width:100; stroke-opacity:1; 
stroke-linecap:round; stroke-linejoin:round;">
</g>
<g style="fill:#840000; fill-opacity:0.0; 
stroke:#840000; stroke-width:60; stroke-opacity:1; 
stroke-linecap:round; stroke-linejoin:round;">
<text x="72830" y="78600"
textLength="550" font-size="680" lengthAdjust="spacingAndGlyphs"
text-anchor="start" opacity="0">4</text>
<path d="M73200 78240
L73200 78580
" />
<path d="M73070 78040
L72950 78410
L73270 78410
" />
</g>
<g style="fill:#840000; fill-opacity:0.0; 
stroke:#840000; stroke-width:100; stroke-opacity:1; 
stroke-linecap:round; stroke-linejoin:round;">
</g>
<g style="fill:#840000; fill-opacity:0.0; 
stroke:#840000; stroke-width:60; stroke-opacity:1; 
stroke-linecap:round; stroke-linejoin:round;">
<text x="92520" y="78600"
textLength="550" font-size="680" lengthAdjust="spacingAndGlyphs"
text-anchor="start" opacity="0">5</text>
<path d="M92910 78070
L92670 78070
L92640 78310
L92670 78280
L92720 78260
L92840 78260
L92890 78280
L92910 78310
L92930 78360
L92930 78480
L92910 78530
L92890 78550
L92840 78580
L92720 78580
L92670 78550
L92640 78530
" />
</g>
<g style="fill:#840000; fill-opacity:0.0; 
stroke:#840000; stroke-width:100; stroke-opacity:1; 
stroke-linecap:round; stroke-linejoin:round;">
</g>
<g style="fill:#840000; fill-opacity:0.0; 
stroke:#840000; stroke-width:60; stroke-opacity:1; 
stroke-linecap:round; stroke-linejoin:round;">
<text x="112200" y="78600"
textLength="550" font-size="680" lengthAdjust="spacingAndGlyphs"
text-anchor="start" opacity="0">6</text>
<path d="M112570 78070
L112470 78070
L112420 78090
L112400 78110
L112350 78190
L112320 78280
L112320 78480
L112350 78530
L112370 78550
L112420 78580
L112520 78580
L112570 78550
L112590 78530
L112610 78480
L112610 78360
L112590 78310
L112570 78280
L112520 78260
L112420 78260
L112370 78280
L112350 78310
L112320 78360
" />
</g>
<g style="fill:#840000; fill-opacity:0.0; 
stroke:#840000; stroke-width:100; stroke-opacity:1; 
stroke-linecap:round; stroke-linejoin:round;">
</g>
<g style="fill:#840000; fill-opacity:0.0; 
stroke:#840000; stroke-width:60; stroke-opacity:1; 
stroke-linecap:round; stroke-linejoin:round;">
<path d="M3940 23620
L4720 23620
" />
</g>
<g style="fill:#840000; fill-opacity:0.0; 
stroke:#840000; stroke-width:100; stroke-opacity:1; 
stroke-linecap:round; stroke-linejoin:round;">
</g>
<g style="fill:#840000; fill-opacity:0.0; 
stroke:#840000; stroke-width:60; stroke-opacity:1; 
stroke-linecap:round; stroke-linejoin:round;">
<path d="M3940 43310
L4720 43310
" />
</g>
<g style="fill:#840000; fill-opacity:0.0; 
stroke:#840000; stroke-width:100; stroke-opacity:1; 
stroke-linecap:round; stroke-linejoin:round;">
</g>
<g style="fill:#840000; fill-opacity:0.0; 
stroke:#840000; stroke-width:60; stroke-opacity:1; 
stroke-linecap:round; stroke-linejoin:round;">
<path d="M3940 62990
L4720 62990
" />
</g>
<g style="fill:#840000; fill-opacity:0.0; 
stroke:#840000; stroke-width:100; stroke-opacity:1; 
stroke-linecap:round; stroke-linejoin:round;">
</g>
<g style="fill:#840000; fill-opacity:0.0; 
stroke:#840000; stroke-width:60; stroke-opacity:1; 
stroke-linecap:round; stroke-linejoin:round;">
<text x="4330" y="14030"
textLength="500" font-size="680" lengthAdjust="spacingAndGlyphs"
text-anchor="middle" opacity="0">A</text>
<path d="M4200 13860
L4450 13860
" />
<path d="M4160 14010
L4330 13500
L4500 14010
" />
</g>
<g style="fill:#840000; fill-opacity:0.0; 
stroke:#840000; stroke-width:100; stroke-opacity:1; 
stroke-linecap:round; stroke-linejoin:round;">
</g>
<g style="fill:#840000; fill-opacity:0.0; 
stroke:#840000; stroke-width:60; stroke-opacity:1; 
stroke-linecap:round; stroke-linejoin:round;">
<text x="4330" y="33710"
textLength="570" font-size="680" lengthAdjust="spacingAndGlyphs"
text-anchor="middle" opacity="0">B</text>
<path d="M4360 33420
L4430 33440
L4460 33470
L4480 33520
L4480 33590
L4460 33640
L4430 33660
L4390 33690
L4190 33690
L4190 33180
L4360 33180
L4410 33200
L4430 33220
L4460 33270
L4460 33320
L4430 33370
L4410 33390
L4360 33420
L4190 33420
" />
</g>
<g style="fill:#840000; fill-opacity:0.0; 
stroke:#840000; stroke-width:100; stroke-opacity:1; 
stroke-linecap:round; stroke-linejoin:round;">
</g>
<g style="fill:#840000; fill-opacity:0.0; 
stroke:#840000; stroke-width:60; stroke-opacity:1; 
stroke-linecap:round; stroke-linejoin:round;">
<text x="4330" y="53400"
textLength="570" font-size="680" lengthAdjust="spacingAndGlyphs"
text-anchor="middle" opacity="0">C</text>
<path d="M4480 53330
L4460 53350
L4390 53380
L4340 53380
L4260 53350
L4220 53300
L4190 53250
L4170 53160
L4170 53080
L4190 52990
L4220 52940
L4260 52890
L4340 52870
L4390 52870
L4460 52890
L4480 52910
" />
</g>
<g style="fill:#840000; fill-opacity:0.0; 
stroke:#840000; stroke-width:100; stroke-opacity:1; 
stroke-linecap:round; stroke-linejoin:round;">
</g>
<g style="fill:#840000; fill-opacity:0.0; 
stroke:#840000; stroke-width:60; stroke-opacity:1; 
stroke-linecap:round; stroke-linejoin:round;">
<text x="4330" y="73080"
textLength="570" font-size="680" lengthAdjust="spacingAndGlyphs"
text-anchor="middle" opacity="0">D</text>
<path d="M4190 73060
L4190 72550
L4310 72550
L4390 72570
L4430 72620
L4460 72670
L4480 72760
L4480 72840
L4460 72930
L4430 72980
L4390 73030
L4310 73060
L4190 73060
" />
</g>
<g style="fill:#840000; fill-opacity:0.0; 
stroke:#840000; stroke-width:100; stroke-opacity:1; 
stroke-linecap:round; stroke-linejoin:round;">
</g>
<g style="fill:#840000; fill-opacity:0.0; 
stroke:#840000; stroke-width:60; stroke-opacity:1; 
stroke-linecap:round; stroke-linejoin:round;">
<path d="M112990 23620
L112210 23620
" />
</g>
<g style="fill:#840000; fill-opacity:0.0; 
stroke:#840000; stroke-width:100; stroke-opacity:1; 
stroke-linecap:round; stroke-linejoin:round;">
</g>
<g style="fill:#840000; fill-opacity:0.0; 
stroke:#840000; stroke-width:60; stroke-opacity:1; 
stroke-linecap:round; stroke-linejoin:round;">
<path d="M112990 43310
L112210 43310
" />
</g>
<g style="fill:#840000; fill-opacity:0.0; 
stroke:#840000; stroke-width:100; stroke-opacity:1; 
stroke-linecap:round; stroke-linejoin:round;">
</g>
<g style="fill:#840000; fill-opacity:0.0; 
stroke:#840000; stroke-width:60; stroke-opacity:1; 
stroke-linecap:round; stroke-linejoin:round;">
<path d="M112990 62990
L112210 62990
" />
</g>
<g style="fill:#840000; fill-opacity:0.0; 
stroke:#840000; stroke-width:100; stroke-opacity:1; 
stroke-linecap:round; stroke-linejoin:round;">
</g>
<g style="fill:#840000; fill-opacity:0.0; 
stroke:#840000; stroke-width:60; stroke-opacity:1; 
stroke-linecap:round; stroke-linejoin:round;">
<text x="112600" y="14030"
textLength="500" font-size="680" lengthAdjust="spacingAndGlyphs"
text-anchor="middle" opacity="0">A</text>
<path d="M112470 13860
L112720 13860
" />
<path d="M112430 14010
L112600 13500
L112770 14010
" />
</g>
<g style="fill:#840000; fill-opacity:0.0; 
stroke:#840000; stroke-width:100; stroke-opacity:1; 
stroke-linecap:round; stroke-linejoin:round;">
</g>
<g style="fill:#840000; fill-opacity:0.0; 
stroke:#840000; stroke-width:60; stroke-opacity:1; 
stroke-linecap:round; stroke-linejoin:round;">
<text x="112600" y="33710"
textLength="570" font-size="680" lengthAdjust="spacingAndGlyphs"
text-anchor="middle" opacity="0">B</text>
<path d="M112630 33420
L112700 33440
L112730 33470
L112750 33520
L112750 33590
L112730 33640
L112700 33660
L112660 33690
L112460 33690
L112460 33180
L112630 33180
L112680 33200
L112700 33220
L112730 33270
L112730 33320
L112700 33370
L112680 33390
L112630 33420
L112460 33420
" />
</g>
<g style="fill:#840000; fill-opacity:0.0; 
stroke:#840000; stroke-width:100; stroke-opacity:1; 
stroke-linecap:round; stroke-linejoin:round;">
</g>
<g style="fill:#840000; fill-opacity:0.0; 
stroke:#840000; stroke-width:60; stroke-opacity:1; 
stroke-linecap:round; stroke-linejoin:round;">
<text x="112600" y="53400"
textLength="570" font-size="680" lengthAdjust="spacingAndGlyphs"
text-anchor="middle" opacity="0">C</text>
<path d="M112750 53330
L112730 53350
L112660 53380
L112610 53380
L112530 53350
L112490 53300
L112460 53250
L112440 53160
L112440 53080
L112460 52990
L112490 52940
L112530 52890
L112610 52870
L112660 52870
L112730 52890
L112750 52910
" />
</g>
<g style="fill:#840000; fill-opacity:0.0; 
stroke:#840000; stroke-width:100; stroke-opacity:1; 
stroke-linecap:round; stroke-linejoin:round;">
</g>
<g style="fill:#840000; fill-opacity:0.0; 
stroke:#840000; stroke-width:60; stroke-opacity:1; 
stroke-linecap:round; stroke-linejoin:round;">
<text x="112600" y="73080"
textLength="570" font-size="680" lengthAdjust="spacingAndGlyphs"
text-anchor="middle" opacity="0">D</text>
<path d="M112460 73060
L112460 72550
L112580 72550
L112660 72570
L112700 72620
L112730 72670
L112750 72760
L112750 72840
L112730 72930
L112700 72980
L112660 73030
L112580 73060
L112460 73060
" />
</g>
<g style="fill:#840000; fill-opacity:0.0; 
stroke:#840000; stroke-width:100; stroke-opacity:1; 
stroke-linecap:round; stroke-linejoin:round;">
</g>
<g style="fill:#840000; fill-opacity:0.0; 
stroke:#840000; stroke-width:60; stroke-opacity:1; 
stroke-linecap:round; stroke-linejoin:round;">
<text x="78740" y="76320"
textLength="2760" font-size="780" lengthAdjust="spacingAndGlyphs"
text-anchor="start" opacity="0">Date: </text>
<path d="M78910 76290
L78910 75700
L79050 75700
L79130 75730
L79190 75790
L79210 75840
L79240 75950
L79240 76040
L79210 76150
L79190 76210
L79130 76260
L79050 76290
L78910 76290
" />
<path d="M79750 76290
L79750 75980
L79720 75930
L79660 75900
L79550 75900
L79500 75930
" />
<path d="M79750 76260
L79690 76290
L79550 76290
L79500 76260
L79470 76210
L79470 76150
L79500 76100
L79550 76070
L79690 76070
L79750 76040
" />
<path d="M79950 75900
L80170 75900
" />
<path d="M80030 75700
L80030 76210
L80060 76260
L80110 76290
L80170 76290
" />
<path d="M80590 76260
L80540 76290
L80420 76290
L80370 76260
L80340 76210
L80340 75980
L80370 75930
L80420 75900
L80540 75900
L80590 75930
L80620 75980
L80620 76040
L80340 76100
" />
<path d="M80870 76240
L80900 76260
L80870 76290
L80840 76260
L80870 76240
L80870 76290
" />
<path d="M80870 75930
L80900 75950
L80870 75980
L80840 75950
L80870 75930
L80870 75980
" />
</g>
<g style="fill:#840000; fill-opacity:0.0; 
stroke:#840000; stroke-width:100; stroke-opacity:1; 
stroke-linecap:round; stroke-linejoin:round;">
</g>
<g style="fill:#840000; fill-opacity:0.0; 
stroke:#840000; stroke-width:60; stroke-opacity:1; 
stroke-linecap:round; stroke-linejoin:round;">
<path d="M69690 76580
L112210 76580
" />
</g>
<g style="fill:#840000; fill-opacity:0.0; 
stroke:#840000; stroke-width:100; stroke-opacity:1; 
stroke-linecap:round; stroke-linejoin:round;">
</g>
<g style="fill:#840000; fill-opacity:0.0; 
stroke:#840000; stroke-width:60; stroke-opacity:1; 
stroke-linecap:round; stroke-linejoin:round;">
<text x="70080" y="77420"
textLength="23240" font-size="780" lengthAdjust="spacingAndGlyphs"
text-anchor="start" opacity="0">KiCad E.D.A.  kicad 5.1.6-c6e7f7d~87~ubuntu20.04.1</text>
<path d="M70250 77390
L70250 76800
" />
<path d="M70580 77390
L70330 77050
" />
<path d="M70580 76800
L70250 77140
" />
<path d="M70840 77390
L70840 77000
" />
<path d="M70840 76800
L70810 76830
L70840 76860
L70860 76830
L70840 76800
L70840 76860
" />
<path d="M71450 77340
L71430 77360
L71340 77390
L71290 77390
L71200 77360
L71140 77310
L71120 77250
L71090 77140
L71090 77050
L71120 76940
L71140 76890
L71200 76830
L71290 76800
L71340 76800
L71430 76830
L71450 76860
" />
<path d="M71960 77390
L71960 77080
L71930 77030
L71880 77000
L71760 77000
L71710 77030
" />
<path d="M71960 77360
L71900 77390
L71760 77390
L71710 77360
L71680 77310
L71680 77250
L71710 77200
L71760 77170
L71900 77170
L71960 77140
" />
<path d="M72490 77390
L72490 76800
" />
<path d="M72490 77360
L72440 77390
L72320 77390
L72270 77360
L72240 77340
L72210 77280
L72210 77110
L72240 77050
L72270 77030
L72320 77000
L72440 77000
L72490 77030
" />
<path d="M73220 77080
L73420 77080
" />
<path d="M73500 77390
L73220 77390
L73220 76800
L73500 76800
" />
<path d="M73760 77340
L73790 77360
L73760 77390
L73730 77360
L73760 77340
L73760 77390
" />
<path d="M74040 77390
L74040 76800
L74180 76800
L74260 76830
L74320 76890
L74350 76940
L74380 77050
L74380 77140
L74350 77250
L74320 77310
L74260 77360
L74180 77390
L74040 77390
" />
<path d="M74630 77340
L74660 77360
L74630 77390
L74600 77360
L74630 77340
L74630 77390
" />
<path d="M74880 77220
L75160 77220
" />
<path d="M74830 77390
L75020 76800
L75220 77390
" />
<path d="M75420 77340
L75440 77360
L75420 77390
L75390 77360
L75420 77340
L75420 77390
" />
<path d="M76600 77390
L76600 76800
" />
<path d="M76650 77170
L76820 77390
" />
<path d="M76820 77000
L76600 77220
" />
<path d="M77070 77390
L77070 77000
" />
<path d="M77070 76800
L77040 76830
L77070 76860
L77100 76830
L77070 76800
L77070 76860
" />
<path d="M77610 77360
L77550 77390
L77440 77390
L77380 77360
L77350 77340
L77330 77280
L77330 77110
L77350 77050
L77380 77030
L77440 77000
L77550 77000
L77610 77030
" />
<path d="M78110 77390
L78110 77080
L78080 77030
L78030 77000
L77920 77000
L77860 77030
" />
<path d="M78110 77360
L78060 77390
L77920 77390
L77860 77360
L77830 77310
L77830 77250
L77860 77200
L77920 77170
L78060 77170
L78110 77140
" />
<path d="M78650 77390
L78650 76800
" />
<path d="M78650 77360
L78590 77390
L78480 77390
L78420 77360
L78390 77340
L78370 77280
L78370 77110
L78390 77050
L78420 77030
L78480 77000
L78590 77000
L78650 77030
" />
<path d="M79660 76800
L79380 76800
L79350 77080
L79380 77050
L79430 77030
L79570 77030
L79630 77050
L79660 77080
L79690 77140
L79690 77280
L79660 77340
L79630 77360
L79570 77390
L79430 77390
L79380 77360
L79350 77340
" />
<path d="M79940 77340
L79970 77360
L79940 77390
L79910 77360
L79940 77340
L79940 77390
" />
<path d="M80530 77390
L80190 77390
" />
<path d="M80360 77390
L80360 76800
L80300 76890
L80250 76940
L80190 76970
" />
<path d="M80780 77340
L80810 77360
L80780 77390
L80750 77360
L80780 77340
L80780 77390
" />
<path d="M81320 76800
L81200 76800
L81150 76830
L81120 76860
L81060 76940
L81030 77050
L81030 77280
L81060 77340
L81090 77360
L81150 77390
L81260 77390
L81320 77360
L81340 77340
L81370 77280
L81370 77140
L81340 77080
L81320 77050
L81260 77030
L81150 77030
L81090 77050
L81060 77080
L81030 77140
" />
<path d="M81620 77170
L82070 77170
" />
<path d="M82610 77360
L82550 77390
L82440 77390
L82380 77360
L82350 77340
L82330 77280
L82330 77110
L82350 77050
L82380 77030
L82440 77000
L82550 77000
L82610 77030
" />
<path d="M83110 76800
L83000 76800
L82940 76830
L82920 76860
L82860 76940
L82830 77050
L82830 77280
L82860 77340
L82890 77360
L82940 77390
L83060 77390
L83110 77360
L83140 77340
L83170 77280
L83170 77140
L83140 77080
L83110 77050
L83060 77030
L82940 77030
L82890 77050
L82860 77080
L82830 77140
" />
<path d="M83650 77360
L83590 77390
L83480 77390
L83420 77360
L83390 77310
L83390 77080
L83420 77030
L83480 77000
L83590 77000
L83650 77030
L83680 77080
L83680 77140
L83390 77200
" />
<path d="M83870 76800
L84270 76800
L84010 77390
" />
<path d="M84410 77000
L84630 77000
" />
<path d="M84490 77390
L84490 76890
L84520 76830
L84570 76800
L84630 76800
" />
<path d="M84770 76800
L85160 76800
L84910 77390
" />
<path d="M85640 77390
L85640 76800
" />
<path d="M85640 77360
L85590 77390
L85470 77390
L85420 77360
L85390 77340
L85360 77280
L85360 77110
L85390 77050
L85420 77030
L85470 77000
L85590 77000
L85640 77030
" />
<path d="M85780 76640
L86340 76640
" />
<path d="M86010 77050
L85950 77030
L85920 77000
L85890 76940
L85890 76910
L85920 76860
L85950 76830
L86010 76800
L86120 76800
L86180 76830
L86200 76860
L86230 76910
L86230 76940
L86200 77000
L86180 77030
L86120 77050
L86010 77050
L85950 77080
L85920 77110
L85890 77170
L85890 77280
L85920 77340
L85950 77360
L86010 77390
L86120 77390
L86180 77360
L86200 77340
L86230 77280
L86230 77170
L86200 77110
L86180 77080
L86120 77050
" />
<path d="M86340 76640
L86910 76640
" />
<path d="M86430 76800
L86820 76800
L86570 77390
" />
<path d="M87300 77000
L87300 77390
" />
<path d="M87050 77000
L87050 77310
L87070 77360
L87130 77390
L87220 77390
L87270 77360
L87300 77340
" />
<path d="M87580 77390
L87580 76800
" />
<path d="M87580 77030
L87640 77000
L87750 77000
L87810 77030
L87830 77050
L87860 77110
L87860 77280
L87830 77340
L87810 77360
L87750 77390
L87640 77390
L87580 77360
" />
<path d="M88370 77000
L88370 77390
" />
<path d="M88110 77000
L88110 77310
L88140 77360
L88200 77390
L88280 77390
L88340 77360
L88370 77340
" />
<path d="M88650 77000
L88650 77390
" />
<path d="M88650 77050
L88680 77030
L88730 77000
L88820 77000
L88870 77030
L88900 77080
L88900 77390
" />
<path d="M89100 77000
L89320 77000
" />
<path d="M89180 76800
L89180 77310
L89210 77360
L89270 77390
L89320 77390
" />
<path d="M89770 77000
L89770 77390
" />
<path d="M89520 77000
L89520 77310
L89550 77360
L89600 77390
L89690 77390
L89740 77360
L89770 77340
" />
<path d="M90020 76860
L90050 76830
L90110 76800
L90250 76800
L90310 76830
L90330 76860
L90360 76910
L90360 76970
L90330 77050
L90000 77390
L90360 77390
" />
<path d="M90730 76800
L90780 76800
L90840 76830
L90870 76860
L90900 76910
L90920 77030
L90920 77170
L90900 77280
L90870 77340
L90840 77360
L90780 77390
L90730 77390
L90670 77360
L90640 77340
L90610 77280
L90590 77170
L90590 77030
L90610 76910
L90640 76860
L90670 76830
L90730 76800
" />
<path d="M91180 77340
L91200 77360
L91180 77390
L91150 77360
L91180 77340
L91180 77390
" />
<path d="M91570 76800
L91630 76800
L91680 76830
L91710 76860
L91740 76910
L91770 77030
L91770 77170
L91740 77280
L91710 77340
L91680 77360
L91630 77390
L91570 77390
L91510 77360
L91490 77340
L91460 77280
L91430 77170
L91430 77030
L91460 76910
L91490 76860
L91510 76830
L91570 76800
" />
<path d="M92270 77000
L92270 77390
" />
<path d="M92130 76770
L91990 77200
L92360 77200
" />
<path d="M92580 77340
L92610 77360
L92580 77390
L92550 77360
L92580 77340
L92580 77390
" />
<path d="M93170 77390
L92830 77390
" />
<path d="M93000 77390
L93000 76800
L92950 76890
L92890 76940
L92830 76970
" />
</g>
<g style="fill:#840000; fill-opacity:0.0; 
stroke:#840000; stroke-width:100; stroke-opacity:1; 
stroke-linecap:round; stroke-linejoin:round;">
</g>
<g style="fill:#840000; fill-opacity:0.0; 
stroke:#840000; stroke-width:60; stroke-opacity:1; 
stroke-linecap:round; stroke-linejoin:round;">
<path d="M69690 75400
L112210 75400
" />
</g>
<g style="fill:#840000; fill-opacity:0.0; 
stroke:#840000; stroke-width:100; stroke-opacity:1; 
stroke-linecap:round; stroke-linejoin:round;">
</g>
<g style="fill:#840000; fill-opacity:0.0; 
stroke:#840000; stroke-width:120; stroke-opacity:1; 
stroke-linecap:round; stroke-linejoin:round;">
<text x="103540" y="76320"
textLength="2340" font-size="780" lengthAdjust="spacingAndGlyphs"
text-anchor="start" opacity="0">Rev: </text>
<path d="M104090 76290
L103890 76010
" />
<path d="M103750 76290
L103750 75700
L103980 75700
L104030 75730
L104060 75760
L104090 75810
L104090 75900
L104060 75950
L104030 75980
L103980 76010
L103750 76010
" />
<path d="M104570 76260
L104510 76290
L104400 76290
L104340 76260
L104320 76210
L104320 75980
L104340 75930
L104400 75900
L104510 75900
L104570 75930
L104600 75980
L104600 76040
L104320 76100
" />
<path d="M104790 75900
L104930 76290
L105070 75900
" />
<path d="M105300 76240
L105330 76260
L105300 76290
L105270 76260
L105300 76240
L105300 76290
" />
<path d="M105300 75930
L105330 75950
L105300 75980
L105270 75950
L105300 75930
L105300 75980
" />
</g>
<g style="fill:#840000; fill-opacity:0.0; 
stroke:#840000; stroke-width:100; stroke-opacity:1; 
stroke-linecap:round; stroke-linejoin:round;">
</g>
<g style="fill:#840000; fill-opacity:0.0; 
stroke:#840000; stroke-width:60; stroke-opacity:1; 
stroke-linecap:round; stroke-linejoin:round;">
<text x="70080" y="76320"
textLength="3780" font-size="780" lengthAdjust="spacingAndGlyphs"
text-anchor="start" opacity="0">Size: A4</text>
<path d="M70220 76260
L70300 76290
L70440 76290
L70500 76260
L70530 76240
L70550 76180
L70550 76120
L70530 76070
L70500 76040
L70440 76010
L70330 75980
L70270 75950
L70250 75930
L70220 75870
L70220 75810
L70250 75760
L70270 75730
L70330 75700
L70470 75700
L70550 75730
" />
<path d="M70810 76290
L70810 75900
" />
<path d="M70810 75700
L70780 75730
L70810 75760
L70840 75730
L70810 75700
L70810 75760
" />
<path d="M71030 75900
L71340 75900
L71030 76290
L71340 76290
" />
<path d="M71790 76260
L71730 76290
L71620 76290
L71570 76260
L71540 76210
L71540 75980
L71570 75930
L71620 75900
L71730 75900
L71790 75930
L71820 75980
L71820 76040
L71540 76100
" />
<path d="M72070 76240
L72100 76260
L72070 76290
L72040 76260
L72070 76240
L72070 76290
" />
<path d="M72070 75930
L72100 75950
L72070 75980
L72040 75950
L72070 75930
L72070 75980
" />
<path d="M72770 76120
L73060 76120
" />
<path d="M72720 76290
L72910 75700
L73110 76290
" />
<path d="M73560 75900
L73560 76290
" />
<path d="M73420 75670
L73280 76100
L73650 76100
" />
</g>
<g style="fill:#840000; fill-opacity:0.0; 
stroke:#840000; stroke-width:100; stroke-opacity:1; 
stroke-linecap:round; stroke-linejoin:round;">
</g>
<g style="fill:#840000; fill-opacity:0.0; 
stroke:#840000; stroke-width:60; stroke-opacity:1; 
stroke-linecap:round; stroke-linejoin:round;">
<text x="103540" y="77420"
textLength="3350" font-size="780" lengthAdjust="spacingAndGlyphs"
text-anchor="start" opacity="0">Id: 7/7</text>
<path d="M103710 77390
L103710 76800
" />
<path d="M104240 77390
L104240 76800
" />
<path d="M104240 77360
L104180 77390
L104070 77390
L104010 77360
L103990 77340
L103960 77280
L103960 77110
L103990 77050
L104010 77030
L104070 77000
L104180 77000
L104240 77030
" />
<path d="M104520 77340
L104550 77360
L104520 77390
L104490 77360
L104520 77340
L104520 77390
" />
<path d="M104520 77030
L104550 77050
L104520 77080
L104490 77050
L104520 77030
L104520 77080
" />
<path d="M105190 76800
L105590 76800
L105340 77390
" />
<path d="M106230 76770
L105730 77530
" />
<path d="M106370 76800
L106770 76800
L106520 77390
" />
</g>
<g style="fill:#840000; fill-opacity:0.0; 
stroke:#840000; stroke-width:100; stroke-opacity:1; 
stroke-linecap:round; stroke-linejoin:round;">
</g>
<g style="fill:#840000; fill-opacity:0.0; 
stroke:#840000; stroke-width:60; stroke-opacity:1; 
stroke-linecap:round; stroke-linejoin:round;">
<path d="M69690 73820
L112210 73820
" />
</g>
<g style="fill:#840000; fill-opacity:0.0; 
stroke:#840000; stroke-width:100; stroke-opacity:1; 
stroke-linecap:round; stroke-linejoin:round;">
</g>
<g style="fill:#840000; fill-opacity:0.0; 
stroke:#840000; stroke-width:160; stroke-opacity:1; 
stroke-linecap:round; stroke-linejoin:round;">
<text x="70080" y="74920"
textLength="3710" font-size="1050" lengthAdjust="spacingAndGlyphs"
text-anchor="start" opacity="0">Title: </text>
<path d="M70360 74090
L70810 74090
" />
<path d="M70480 74880
L70580 74090
" />
<path d="M70970 74880
L71040 74360
" />
<path d="M71070 74090
L71030 74130
L71060 74170
L71110 74130
L71070 74090
L71060 74170
" />
<path d="M71300 74360
L71600 74360
" />
<path d="M71450 74090
L71360 74770
L71390 74840
L71460 74880
L71540 74880
" />
<path d="M71910 74880
L71840 74840
L71820 74770
L71900 74090
" />
<path d="M72520 74840
L72440 74880
L72290 74880
L72220 74840
L72190 74770
L72230 74470
L72280 74390
L72360 74360
L72510 74360
L72580 74390
L72610 74470
L72600 74540
L72210 74620
" />
<path d="M72900 74810
L72930 74840
L72890 74880
L72860 74840
L72900 74810
L72890 74880
" />
<path d="M72950 74390
L72990 74430
L72940 74470
L72910 74430
L72950 74390
L72940 74470
" />
</g>
<g style="fill:#840000; fill-opacity:0.0; 
stroke:#840000; stroke-width:100; stroke-opacity:1; 
stroke-linecap:round; stroke-linejoin:round;">
</g>
<g style="fill:#840000; fill-opacity:0.0; 
stroke:#840000; stroke-width:60; stroke-opacity:1; 
stroke-linecap:round; stroke-linejoin:round;">
<text x="70080" y="73400"
textLength="11640" font-size="780" lengthAdjust="spacingAndGlyphs"
text-anchor="start" opacity="0">File: power-regulator.sch</text>
<path d="M70440 73060
L70250 73060
" />
<path d="M70250 73370
L70250 72780
L70530 72780
" />
<path d="M70750 73370
L70750 72980
" />
<path d="M70750 72780
L70720 72810
L70750 72840
L70780 72810
L70750 72780
L70750 72840
" />
<path d="M71120 73370
L71060 73340
L71030 73290
L71030 72780
" />
<path d="M71570 73340
L71510 73370
L71400 73370
L71340 73340
L71310 73290
L71310 73060
L71340 73010
L71400 72980
L71510 72980
L71570 73010
L71590 73060
L71590 73120
L71310 73180
" />
<path d="M71850 73320
L71880 73340
L71850 73370
L71820 73340
L71850 73320
L71850 73370
" />
<path d="M71850 73010
L71880 73030
L71850 73060
L71820 73030
L71850 73010
L71850 73060
" />
<path d="M72580 72980
L72580 73570
" />
<path d="M72580 73010
L72630 72980
L72750 72980
L72800 73010
L72830 73030
L72860 73090
L72860 73260
L72830 73320
L72800 73340
L72750 73370
L72630 73370
L72580 73340
" />
<path d="M73200 73370
L73140 73340
L73110 73320
L73080 73260
L73080 73090
L73110 73030
L73140 73010
L73200 72980
L73280 72980
L73340 73010
L73360 73030
L73390 73090
L73390 73260
L73360 73320
L73340 73340
L73280 73370
L73200 73370
" />
<path d="M73590 72980
L73700 73370
L73810 73090
L73930 73370
L74040 72980
" />
<path d="M74490 73340
L74430 73370
L74320 73370
L74260 73340
L74240 73290
L74240 73060
L74260 73010
L74320 72980
L74430 72980
L74490 73010
L74520 73060
L74520 73120
L74240 73180
" />
<path d="M74770 73370
L74770 72980
" />
<path d="M74770 73090
L74800 73030
L74830 73010
L74880 72980
L74940 72980
" />
<path d="M75130 73150
L75580 73150
" />
<path d="M75860 73370
L75860 72980
" />
<path d="M75860 73090
L75890 73030
L75920 73010
L75980 72980
L76030 72980
" />
<path d="M76450 73340
L76400 73370
L76290 73370
L76230 73340
L76200 73290
L76200 73060
L76230 73010
L76290 72980
L76400 72980
L76450 73010
L76480 73060
L76480 73120
L76200 73180
" />
<path d="M76990 72980
L76990 73460
L76960 73510
L76930 73540
L76880 73570
L76790 73570
L76740 73540
" />
<path d="M76990 73340
L76930 73370
L76820 73370
L76760 73340
L76740 73320
L76710 73260
L76710 73090
L76740 73030
L76760 73010
L76820 72980
L76930 72980
L76990 73010
" />
<path d="M77520 72980
L77520 73370
" />
<path d="M77270 72980
L77270 73290
L77300 73340
L77350 73370
L77440 73370
L77490 73340
L77520 73320
" />
<path d="M77890 73370
L77830 73340
L77800 73290
L77800 72780
" />
<path d="M78370 73370
L78370 73060
L78340 73010
L78280 72980
L78170 72980
L78110 73010
" />
<path d="M78370 73340
L78310 73370
L78170 73370
L78110 73340
L78080 73290
L78080 73230
L78110 73180
L78170 73150
L78310 73150
L78370 73120
" />
<path d="M78560 72980
L78790 72980
" />
<path d="M78650 72780
L78650 73290
L78670 73340
L78730 73370
L78790 73370
" />
<path d="M79070 73370
L79010 73340
L78980 73320
L78960 73260
L78960 73090
L78980 73030
L79010 73010
L79070 72980
L79150 72980
L79210 73010
L79240 73030
L79260 73090
L79260 73260
L79240 73320
L79210 73340
L79150 73370
L79070 73370
" />
<path d="M79520 73370
L79520 72980
" />
<path d="M79520 73090
L79550 73030
L79570 73010
L79630 72980
L79690 72980
" />
<path d="M79880 73320
L79910 73340
L79880 73370
L79850 73340
L79880 73320
L79880 73370
" />
<path d="M80140 73340
L80190 73370
L80300 73370
L80360 73340
L80390 73290
L80390 73260
L80360 73200
L80300 73180
L80220 73180
L80160 73150
L80140 73090
L80140 73060
L80160 73010
L80220 72980
L80300 72980
L80360 73010
" />
<path d="M80890 73340
L80840 73370
L80730 73370
L80670 73340
L80640 73320
L80610 73260
L80610 73090
L80640 73030
L80670 73010
L80730 72980
L80840 72980
L80890 73010
" />
<path d="M81150 73370
L81150 72780
" />
<path d="M81400 73370
L81400 73060
L81370 73010
L81320 72980
L81230 72980
L81170 73010
L81150 73030
" />
</g>
<g style="fill:#840000; fill-opacity:0.0; 
stroke:#840000; stroke-width:100; stroke-opacity:1; 
stroke-linecap:round; stroke-linejoin:round;">
</g>
<g style="fill:#840000; fill-opacity:0.0; 
stroke:#840000; stroke-width:60; stroke-opacity:1; 
stroke-linecap:round; stroke-linejoin:round;">
<path d="M69690 71460
L112210 71460
" />
</g>
<g style="fill:#840000; fill-opacity:0.0; 
stroke:#840000; stroke-width:100; stroke-opacity:1; 
stroke-linecap:round; stroke-linejoin:round;">
</g>
<g style="fill:#840000; fill-opacity:0.0; 
stroke:#840000; stroke-width:60; stroke-opacity:1; 
stroke-linecap:round; stroke-linejoin:round;">
<text x="70080" y="72340"
textLength="11070" font-size="780" lengthAdjust="spacingAndGlyphs"
text-anchor="start" opacity="0">Sheet: /3.3V Regulator/</text>
<path d="M70220 72280
L70300 72310
L70440 72310
L70500 72280
L70530 72260
L70550 72200
L70550 72140
L70530 72090
L70500 72060
L70440 72030
L70330 72000
L70270 71970
L70250 71950
L70220 71890
L70220 71830
L70250 71780
L70270 71750
L70330 71720
L70470 71720
L70550 71750
" />
<path d="M70810 72310
L70810 71720
" />
<path d="M71060 72310
L71060 72000
L71030 71950
L70980 71920
L70890 71920
L70840 71950
L70810 71970
" />
<path d="M71570 72280
L71510 72310
L71400 72310
L71340 72280
L71310 72230
L71310 72000
L71340 71950
L71400 71920
L71510 71920
L71570 71950
L71590 72000
L71590 72060
L71310 72120
" />
<path d="M72070 72280
L72020 72310
L71900 72310
L71850 72280
L71820 72230
L71820 72000
L71850 71950
L71900 71920
L72020 71920
L72070 71950
L72100 72000
L72100 72060
L71820 72120
" />
<path d="M72270 71920
L72490 71920
" />
<path d="M72350 71720
L72350 72230
L72380 72280
L72440 72310
L72490 72310
" />
<path d="M72690 72260
L72720 72280
L72690 72310
L72660 72280
L72690 72260
L72690 72310
" />
<path d="M72690 71950
L72720 71970
L72690 72000
L72660 71970
L72690 71950
L72690 72000
" />
<path d="M73840 71690
L73340 72450
" />
<path d="M73980 71720
L74350 71720
L74150 71950
L74240 71950
L74290 71970
L74320 72000
L74350 72060
L74350 72200
L74320 72260
L74290 72280
L74240 72310
L74070 72310
L74010 72280
L73980 72260
" />
<path d="M74600 72260
L74630 72280
L74600 72310
L74570 72280
L74600 72260
L74600 72310
" />
<path d="M74830 71720
L75190 71720
L74990 71950
L75080 71950
L75130 71970
L75160 72000
L75190 72060
L75190 72200
L75160 72260
L75130 72280
L75080 72310
L74910 72310
L74850 72280
L74830 72260
" />
<path d="M75360 71720
L75560 72310
L75750 71720
" />
<path d="M76740 72310
L76540 72030
" />
<path d="M76400 72310
L76400 71720
L76620 71720
L76680 71750
L76710 71780
L76740 71830
L76740 71920
L76710 71970
L76680 72000
L76620 72030
L76400 72030
" />
<path d="M77210 72280
L77160 72310
L77040 72310
L76990 72280
L76960 72230
L76960 72000
L76990 71950
L77040 71920
L77160 71920
L77210 71950
L77240 72000
L77240 72060
L76960 72120
" />
<path d="M77750 71920
L77750 72400
L77720 72450
L77690 72480
L77630 72510
L77550 72510
L77490 72480
" />
<path d="M77750 72280
L77690 72310
L77580 72310
L77520 72280
L77490 72260
L77470 72200
L77470 72030
L77490 71970
L77520 71950
L77580 71920
L77690 71920
L77750 71950
" />
<path d="M78280 71920
L78280 72310
" />
<path d="M78030 71920
L78030 72230
L78060 72280
L78110 72310
L78200 72310
L78250 72280
L78280 72260
" />
<path d="M78650 72310
L78590 72280
L78560 72230
L78560 71720
" />
<path d="M79120 72310
L79120 72000
L79100 71950
L79040 71920
L78930 71920
L78870 71950
" />
<path d="M79120 72280
L79070 72310
L78930 72310
L78870 72280
L78840 72230
L78840 72170
L78870 72120
L78930 72090
L79070 72090
L79120 72060
" />
<path d="M79320 71920
L79550 71920
" />
<path d="M79400 71720
L79400 72230
L79430 72280
L79490 72310
L79550 72310
" />
<path d="M79830 72310
L79770 72280
L79740 72260
L79710 72200
L79710 72030
L79740 71970
L79770 71950
L79830 71920
L79910 71920
L79970 71950
L79990 71970
L80020 72030
L80020 72200
L79990 72260
L79970 72280
L79910 72310
L79830 72310
" />
<path d="M80280 72310
L80280 71920
" />
<path d="M80280 72030
L80300 71970
L80330 71950
L80390 71920
L80440 71920
" />
<path d="M81060 71690
L80560 72450
" />
</g>
<g style="fill:#840000; fill-opacity:0.0; 
stroke:#840000; stroke-width:100; stroke-opacity:1; 
stroke-linecap:round; stroke-linejoin:round;">
</g>
<g style="fill:#840000; fill-opacity:0.0; 
stroke:#840000; stroke-width:60; stroke-opacity:1; 
stroke-linecap:round; stroke-linejoin:round;">
<path d="M77560 75400
L77560 76580
" />
</g>
<g style="fill:#840000; fill-opacity:0.0; 
stroke:#840000; stroke-width:100; stroke-opacity:1; 
stroke-linecap:round; stroke-linejoin:round;">
</g>
<g style="fill:#840000; fill-opacity:0.0; 
stroke:#840000; stroke-width:60; stroke-opacity:1; 
stroke-linecap:round; stroke-linejoin:round;">
<path d="M102760 75400
L102760 77960
" />
</g>
<g style="fill:#840000; fill-opacity:0.0; 
stroke:#840000; stroke-width:0; stroke-opacity:1; 
stroke-linecap:round; stroke-linejoin:round;">
<g >
</g>
<g style="fill:#840000; fill-opacity:0.0; 
stroke:#840000; stroke-width:60; stroke-opacity:1; 
stroke-linecap:round; stroke-linejoin:round;">
<path style="fill:#840000; fill-opacity:0.0; 
stroke:#840000; stroke-width:60; stroke-opacity:1; 
stroke-linecap:round; stroke-linejoin:round;fill:none"
d="M 48500,37800
48000,37500
" /> 
<path style="fill:#840000; fill-opacity:0.0; 
stroke:#840000; stroke-width:60; stroke-opacity:1; 
stroke-linecap:round; stroke-linejoin:round;fill:none"
d="M 49000,37500
48000,37500
" /> 
<path style="fill:#840000; fill-opacity:0.0; 
stroke:#840000; stroke-width:60; stroke-opacity:1; 
stroke-linecap:round; stroke-linejoin:round;fill:none"
d="M 48000,37500
48500,37200
" /> 
</g>
<g style="fill:#008484; fill-opacity:0.0; 
stroke:#008484; stroke-width:60; stroke-opacity:1; 
stroke-linecap:round; stroke-linejoin:round;">
<g transform="rotate(-90 47290 37350)">
<text x="47290" y="37600"
textLength="1580" font-size="660" lengthAdjust="spacingAndGlyphs"
text-anchor="middle" opacity="0">+5V</text>
</g>
<path d="M47320 37990
L47320 37610
" />
<path d="M47510 37800
L47130 37800
" />
<path d="M47010 37130
L47010 37370
L47250 37390
L47230 37370
L47200 37320
L47200 37200
L47230 37150
L47250 37130
L47300 37110
L47420 37110
L47460 37130
L47490 37150
L47510 37200
L47510 37320
L47490 37370
L47460 37390
" />
<path d="M47010 36960
L47510 36800
L47010 36630
" />
</g>
</g>
<g style="fill:#008484; fill-opacity:0.0; 
stroke:#008484; stroke-width:0; stroke-opacity:1; 
stroke-linecap:round; stroke-linejoin:round;">
<g >
</g>
<g style="fill:#840000; fill-opacity:0.0; 
stroke:#840000; stroke-width:0; stroke-opacity:1; 
stroke-linecap:round; stroke-linejoin:round;">
</g>
<g style="fill:#840000; fill-opacity:0.0; 
stroke:#840000; stroke-width:60; stroke-opacity:1; 
stroke-linecap:round; stroke-linejoin:round;">
<circle cx="46200" cy="42500" r="300" /> 
<path d="M46500 42500
L47500 42500
" />
</g>
<g style="fill:#008484; fill-opacity:0.0; 
stroke:#008484; stroke-width:60; stroke-opacity:1; 
stroke-linecap:round; stroke-linejoin:round;">
<g transform="rotate(-90 46340 40140)">
<text x="46340" y="40390"
textLength="3560" font-size="660" lengthAdjust="spacingAndGlyphs"
text-anchor="middle" opacity="0">TP-GND1</text>
</g>
<path d="M46060 41840
L46060 41550
" />
<path d="M46560 41690
L46060 41690
" />
<path d="M46560 41390
L46060 41390
L46060 41190
L46090 41150
L46110 41120
L46160 41100
L46230 41100
L46280 41120
L46300 41150
L46320 41190
L46320 41390
" />
<path d="M46370 40890
L46370 40500
" />
<path d="M46090 40000
L46060 40050
L46060 40120
L46090 40190
L46130 40240
L46180 40270
L46280 40290
L46350 40290
L46440 40270
L46490 40240
L46540 40190
L46560 40120
L46560 40080
L46540 40000
L46510 39980
L46350 39980
L46350 40080
" />
<path d="M46560 39770
L46060 39770
L46560 39480
L46060 39480
" />
<path d="M46560 39240
L46060 39240
L46060 39120
L46090 39050
L46130 39000
L46180 38980
L46280 38960
L46350 38960
L46440 38980
L46490 39000
L46540 39050
L46560 39120
L46560 39240
" />
<path d="M46560 38480
L46560 38770
" />
<path d="M46560 38620
L46060 38620
L46130 38670
L46180 38720
L46200 38770
" />
<g transform="rotate(-90 47250 40170)">
<text x="47250" y="40420"
textLength="3490" font-size="660" lengthAdjust="spacingAndGlyphs"
text-anchor="middle" opacity="0">TestPoint</text>
</g>
<path d="M46970 41830
L46970 41550
" />
<path d="M47470 41690
L46970 41690
" />
<path d="M47450 41190
L47470 41240
L47470 41330
L47450 41380
L47400 41400
L47210 41400
L47160 41380
L47140 41330
L47140 41240
L47160 41190
L47210 41170
L47260 41170
L47300 41400
" />
<path d="M47450 40970
L47470 40930
L47470 40830
L47450 40780
L47400 40760
L47380 40760
L47330 40780
L47300 40830
L47300 40900
L47280 40950
L47230 40970
L47210 40970
L47160 40950
L47140 40900
L47140 40830
L47160 40780
" />
<path d="M47140 40620
L47140 40430
" />
<path d="M46970 40550
L47400 40550
L47450 40520
L47470 40470
L47470 40430
" />
<path d="M47470 40260
L46970 40260
L46970 40070
L47000 40020
L47020 40000
L47070 39970
L47140 39970
L47190 40000
L47210 40020
L47230 40070
L47230 40260
" />
<path d="M47470 39690
L47450 39740
L47420 39760
L47380 39780
L47230 39780
L47190 39760
L47160 39740
L47140 39690
L47140 39620
L47160 39570
L47190 39550
L47230 39520
L47380 39520
L47420 39550
L47450 39570
L47470 39620
L47470 39690
" />
<path d="M47470 39310
L47140 39310
" />
<path d="M46970 39310
L47000 39330
L47020 39310
L47000 39280
L46970 39310
L47020 39310
" />
<path d="M47140 39070
L47470 39070
" />
<path d="M47190 39070
L47160 39050
L47140 39000
L47140 38930
L47160 38880
L47210 38860
L47470 38860
" />
<path d="M47140 38690
L47140 38500
" />
<path d="M46970 38620
L47400 38620
L47450 38590
L47470 38550
L47470 38500
" />
</g>
</g>
<g style="fill:#008484; fill-opacity:0.0; 
stroke:#008484; stroke-width:0; stroke-opacity:1; 
stroke-linecap:round; stroke-linejoin:round;">
<g >
</g>
<g style="fill:#840000; fill-opacity:0.0; 
stroke:#840000; stroke-width:0; stroke-opacity:1; 
stroke-linecap:round; stroke-linejoin:round;">
</g>
<g style="fill:#840000; fill-opacity:0.0; 
stroke:#840000; stroke-width:60; stroke-opacity:1; 
stroke-linecap:round; stroke-linejoin:round;">
<path style="fill:#840000; fill-opacity:0.0; 
stroke:#840000; stroke-width:60; stroke-opacity:1; 
stroke-linecap:round; stroke-linejoin:round;fill:none"
d="M 47500,43500
47500,44000
47900,44250
47500,44500
47100,44250
47500,44000
" /> 
<path d="M47500 43500
L47500 43500
" />
</g>
<g style="fill:#008484; fill-opacity:0.0; 
stroke:#008484; stroke-width:60; stroke-opacity:1; 
stroke-linecap:round; stroke-linejoin:round;">
<text x="47490" y="45450"
textLength="3770" font-size="660" lengthAdjust="spacingAndGlyphs"
text-anchor="middle" opacity="0">PWR_FLAG</text>
<path d="M45750 45420
L45750 44920
L45940 44920
L45990 44950
L46010 44970
L46030 45020
L46030 45090
L46010 45140
L45990 45160
L45940 45180
L45750 45180
" />
<path d="M46200 44920
L46320 45420
L46410 45060
L46510 45420
L46630 44920
" />
<path d="M47100 45420
L46940 45180
" />
<path d="M46820 45420
L46820 44920
L47010 44920
L47060 44950
L47080 44970
L47100 45020
L47100 45090
L47080 45140
L47060 45160
L47010 45180
L46820 45180
" />
<path d="M47200 45470
L47580 45470
" />
<path d="M47870 45160
L47700 45160
" />
<path d="M47700 45420
L47700 44920
L47940 44920
" />
<path d="M48370 45420
L48130 45420
L48130 44920
" />
<path d="M48510 45280
L48750 45280
" />
<path d="M48460 45420
L48630 44920
L48790 45420
" />
<path d="M49220 44950
L49180 44920
L49100 44920
L49030 44950
L48990 44990
L48960 45040
L48940 45140
L48940 45210
L48960 45300
L48990 45350
L49030 45400
L49100 45420
L49150 45420
L49220 45400
L49250 45370
L49250 45210
L49150 45210
" />
</g>
</g>
<g style="fill:#008484; fill-opacity:0.0; 
stroke:#008484; stroke-width:0; stroke-opacity:1; 
stroke-linecap:round; stroke-linejoin:round;">
<g >
</g>
<g style="fill:#840000; fill-opacity:0.0; 
stroke:#840000; stroke-width:0; stroke-opacity:1; 
stroke-linecap:round; stroke-linejoin:round;">
</g>
<g style="fill:#840000; fill-opacity:0.0; 
stroke:#840000; stroke-width:60; stroke-opacity:1; 
stroke-linecap:round; stroke-linejoin:round;">
<path style="fill:#840000; fill-opacity:0.0; 
stroke:#840000; stroke-width:60; stroke-opacity:1; 
stroke-linecap:round; stroke-linejoin:round;fill:none"
d="M 50500,43500
50500,44000
51000,44000
50500,44500
50000,44000
50500,44000
" /> 
</g>
<g style="fill:#008484; fill-opacity:0.0; 
stroke:#008484; stroke-width:60; stroke-opacity:1; 
stroke-linecap:round; stroke-linejoin:round;">
<text x="50550" y="45500"
textLength="1580" font-size="660" lengthAdjust="spacingAndGlyphs"
text-anchor="middle" opacity="0">GND</text>
<path d="M50160 45000
L50120 44970
L50050 44970
L49970 45000
L49930 45040
L49900 45090
L49880 45190
L49880 45260
L49900 45350
L49930 45400
L49970 45450
L50050 45470
L50090 45470
L50160 45450
L50190 45420
L50190 45260
L50090 45260
" />
<path d="M50400 45470
L50400 44970
L50690 45470
L50690 44970
" />
<path d="M50930 45470
L50930 44970
L51050 44970
L51120 45000
L51160 45040
L51190 45090
L51210 45190
L51210 45260
L51190 45350
L51160 45400
L51120 45450
L51050 45470
L50930 45470
" />
</g>
</g>
<g style="fill:#008484; fill-opacity:0.0; 
stroke:#008484; stroke-width:0; stroke-opacity:1; 
stroke-linecap:round; stroke-linejoin:round;">
<g >
</g>
<g style="fill:#840000; fill-opacity:0.0; 
stroke:#840000; stroke-width:0; stroke-opacity:1; 
stroke-linecap:round; stroke-linejoin:round;">
</g>
<g style="fill:#840000; fill-opacity:0.0; 
stroke:#840000; stroke-width:60; stroke-opacity:1; 
stroke-linecap:round; stroke-linejoin:round;">
<path style="fill:#840000; fill-opacity:0.0; 
stroke:#840000; stroke-width:60; stroke-opacity:1; 
stroke-linecap:round; stroke-linejoin:round;fill:none"
d="M 49500,35000
49500,34500
49100,34250
49500,34000
49900,34250
49500,34500
" /> 
<path d="M49500 35000
L49500 35000
" />
</g>
<g style="fill:#008484; fill-opacity:0.0; 
stroke:#008484; stroke-width:60; stroke-opacity:1; 
stroke-linecap:round; stroke-linejoin:round;">
<text x="49500" y="33540"
textLength="3770" font-size="660" lengthAdjust="spacingAndGlyphs"
text-anchor="middle" opacity="0">PWR_FLAG</text>
<path d="M47760 33510
L47760 33010
L47950 33010
L48000 33040
L48020 33060
L48040 33110
L48040 33180
L48020 33230
L48000 33250
L47950 33270
L47760 33270
" />
<path d="M48210 33010
L48330 33510
L48420 33150
L48520 33510
L48640 33010
" />
<path d="M49110 33510
L48950 33270
" />
<path d="M48830 33510
L48830 33010
L49020 33010
L49070 33040
L49090 33060
L49110 33110
L49110 33180
L49090 33230
L49070 33250
L49020 33270
L48830 33270
" />
<path d="M49210 33560
L49590 33560
" />
<path d="M49880 33250
L49710 33250
" />
<path d="M49710 33510
L49710 33010
L49950 33010
" />
<path d="M50380 33510
L50140 33510
L50140 33010
" />
<path d="M50520 33370
L50760 33370
" />
<path d="M50470 33510
L50640 33010
L50800 33510
" />
<path d="M51230 33040
L51190 33010
L51110 33010
L51040 33040
L51000 33080
L50970 33130
L50950 33230
L50950 33300
L50970 33390
L51000 33440
L51040 33490
L51110 33510
L51160 33510
L51230 33490
L51260 33460
L51260 33300
L51160 33300
" />
</g>
</g>
<g style="fill:#008484; fill-opacity:0.0; 
stroke:#008484; stroke-width:0; stroke-opacity:1; 
stroke-linecap:round; stroke-linejoin:round;">
<g >
</g>
<g style="fill:#840000; fill-opacity:0.0; 
stroke:#840000; stroke-width:0; stroke-opacity:1; 
stroke-linecap:round; stroke-linejoin:round;">
</g>
<g style="fill:#840000; fill-opacity:0.0; 
stroke:#840000; stroke-width:60; stroke-opacity:1; 
stroke-linecap:round; stroke-linejoin:round;">
<circle cx="69000" cy="37200" r="300" /> 
<path d="M69000 37500
L69000 38500
" />
</g>
<g style="fill:#008484; fill-opacity:0.0; 
stroke:#008484; stroke-width:60; stroke-opacity:1; 
stroke-linecap:round; stroke-linejoin:round;">
<text x="71410" y="37590"
textLength="3660" font-size="660" lengthAdjust="spacingAndGlyphs"
text-anchor="middle" opacity="0">TP-3.3V1</text>
<path d="M69660 37060
L69940 37060
" />
<path d="M69800 37560
L69800 37060
" />
<path d="M70110 37560
L70110 37060
L70300 37060
L70350 37090
L70370 37110
L70390 37160
L70390 37230
L70370 37280
L70350 37300
L70300 37320
L70110 37320
" />
<path d="M70610 37370
L70990 37370
" />
<path d="M71180 37060
L71490 37060
L71320 37250
L71390 37250
L71440 37280
L71460 37300
L71490 37350
L71490 37470
L71460 37510
L71440 37540
L71390 37560
L71250 37560
L71200 37540
L71180 37510
" />
<path d="M71700 37510
L71730 37540
L71700 37560
L71680 37540
L71700 37510
L71700 37560
" />
<path d="M71890 37060
L72200 37060
L72040 37250
L72110 37250
L72160 37280
L72180 37300
L72200 37350
L72200 37470
L72180 37510
L72160 37540
L72110 37560
L71960 37560
L71920 37540
L71890 37510
" />
<path d="M72350 37060
L72510 37560
L72680 37060
" />
<path d="M73110 37560
L72820 37560
" />
<path d="M72960 37560
L72960 37060
L72920 37130
L72870 37180
L72820 37200
" />
<text x="71320" y="38500"
textLength="3490" font-size="660" lengthAdjust="spacingAndGlyphs"
text-anchor="middle" opacity="0">TestPoint</text>
<path d="M69650 37970
L69930 37970
" />
<path d="M69790 38470
L69790 37970
" />
<path d="M70290 38450
L70240 38470
L70150 38470
L70100 38450
L70080 38400
L70080 38210
L70100 38160
L70150 38140
L70240 38140
L70290 38160
L70320 38210
L70320 38260
L70080 38300
" />
<path d="M70510 38450
L70550 38470
L70650 38470
L70700 38450
L70720 38400
L70720 38380
L70700 38330
L70650 38300
L70580 38300
L70530 38280
L70510 38230
L70510 38210
L70530 38160
L70580 38140
L70650 38140
L70700 38160
" />
<path d="M70860 38140
L71050 38140
" />
<path d="M70930 37970
L70930 38400
L70960 38450
L71010 38470
L71050 38470
" />
<path d="M71220 38470
L71220 37970
L71410 37970
L71460 38000
L71480 38020
L71510 38070
L71510 38140
L71480 38190
L71460 38210
L71410 38230
L71220 38230
" />
<path d="M71790 38470
L71740 38450
L71720 38420
L71700 38380
L71700 38230
L71720 38190
L71740 38160
L71790 38140
L71860 38140
L71910 38160
L71930 38190
L71960 38230
L71960 38380
L71930 38420
L71910 38450
L71860 38470
L71790 38470
" />
<path d="M72170 38470
L72170 38140
" />
<path d="M72170 37970
L72150 38000
L72170 38020
L72200 38000
L72170 37970
L72170 38020
" />
<path d="M72410 38140
L72410 38470
" />
<path d="M72410 38190
L72430 38160
L72480 38140
L72550 38140
L72600 38160
L72620 38210
L72620 38470
" />
<path d="M72790 38140
L72980 38140
" />
<path d="M72860 37970
L72860 38400
L72890 38450
L72930 38470
L72980 38470
" />
</g>
</g>
<g style="fill:#008484; fill-opacity:0.0; 
stroke:#008484; stroke-width:0; stroke-opacity:1; 
stroke-linecap:round; stroke-linejoin:round;">
<g >
</g>
<g style="fill:#840000; fill-opacity:0.0; 
stroke:#840000; stroke-width:0; stroke-opacity:1; 
stroke-linecap:round; stroke-linejoin:round;">
</g>
<g style="fill:#840000; fill-opacity:0.0; 
stroke:#840000; stroke-width:60; stroke-opacity:1; 
stroke-linecap:round; stroke-linejoin:round;">
<circle cx="51500" cy="36200" r="300" /> 
<path d="M51500 36500
L51500 37500
" />
</g>
<g style="fill:#008484; fill-opacity:0.0; 
stroke:#008484; stroke-width:60; stroke-opacity:1; 
stroke-linecap:round; stroke-linejoin:round;">
<text x="53550" y="36590"
textLength="2940" font-size="660" lengthAdjust="spacingAndGlyphs"
text-anchor="middle" opacity="0">TP-5V1</text>
<path d="M52150 36060
L52440 36060
" />
<path d="M52300 36560
L52300 36060
" />
<path d="M52600 36560
L52600 36060
L52800 36060
L52840 36090
L52870 36110
L52890 36160
L52890 36230
L52870 36280
L52840 36300
L52800 36320
L52600 36320
" />
<path d="M53100 36370
L53490 36370
" />
<path d="M53960 36060
L53720 36060
L53700 36300
L53720 36280
L53770 36250
L53890 36250
L53940 36280
L53960 36300
L53990 36350
L53990 36470
L53960 36510
L53940 36540
L53890 36560
L53770 36560
L53720 36540
L53700 36510
" />
<path d="M54130 36060
L54300 36560
L54460 36060
" />
<path d="M54890 36560
L54600 36560
" />
<path d="M54750 36560
L54750 36060
L54700 36130
L54650 36180
L54600 36200
" />
<text x="53820" y="37500"
textLength="3490" font-size="660" lengthAdjust="spacingAndGlyphs"
text-anchor="middle" opacity="0">TestPoint</text>
<path d="M52150 36970
L52430 36970
" />
<path d="M52290 37470
L52290 36970
" />
<path d="M52790 37450
L52740 37470
L52650 37470
L52600 37450
L52580 37400
L52580 37210
L52600 37160
L52650 37140
L52740 37140
L52790 37160
L52820 37210
L52820 37260
L52580 37300
" />
<path d="M53010 37450
L53050 37470
L53150 37470
L53200 37450
L53220 37400
L53220 37380
L53200 37330
L53150 37300
L53080 37300
L53030 37280
L53010 37230
L53010 37210
L53030 37160
L53080 37140
L53150 37140
L53200 37160
" />
<path d="M53360 37140
L53550 37140
" />
<path d="M53430 36970
L53430 37400
L53460 37450
L53510 37470
L53550 37470
" />
<path d="M53720 37470
L53720 36970
L53910 36970
L53960 37000
L53980 37020
L54010 37070
L54010 37140
L53980 37190
L53960 37210
L53910 37230
L53720 37230
" />
<path d="M54290 37470
L54240 37450
L54220 37420
L54200 37380
L54200 37230
L54220 37190
L54240 37160
L54290 37140
L54360 37140
L54410 37160
L54430 37190
L54460 37230
L54460 37380
L54430 37420
L54410 37450
L54360 37470
L54290 37470
" />
<path d="M54670 37470
L54670 37140
" />
<path d="M54670 36970
L54650 37000
L54670 37020
L54700 37000
L54670 36970
L54670 37020
" />
<path d="M54910 37140
L54910 37470
" />
<path d="M54910 37190
L54930 37160
L54980 37140
L55050 37140
L55100 37160
L55120 37210
L55120 37470
" />
<path d="M55290 37140
L55480 37140
" />
<path d="M55360 36970
L55360 37400
L55390 37450
L55430 37470
L55480 37470
" />
</g>
</g>
<g style="fill:#008484; fill-opacity:0.0; 
stroke:#008484; stroke-width:0; stroke-opacity:1; 
stroke-linecap:round; stroke-linejoin:round;">
<g >
</g>
<g style="fill:#840000; fill-opacity:0.0; 
stroke:#840000; stroke-width:0; stroke-opacity:1; 
stroke-linecap:round; stroke-linejoin:round;">
</g>
<g style="fill:#840000; fill-opacity:0.0; 
stroke:#840000; stroke-width:60; stroke-opacity:1; 
stroke-linecap:round; stroke-linejoin:round;">
<path style="fill:#840000; fill-opacity:0.0; 
stroke:#840000; stroke-width:60; stroke-opacity:1; 
stroke-linecap:round; stroke-linejoin:round;fill:none"
d="M 69300,42500
69000,43000
" /> 
<path style="fill:#840000; fill-opacity:0.0; 
stroke:#840000; stroke-width:60; stroke-opacity:1; 
stroke-linecap:round; stroke-linejoin:round;fill:none"
d="M 69000,42000
69000,43000
" /> 
<path style="fill:#840000; fill-opacity:0.0; 
stroke:#840000; stroke-width:60; stroke-opacity:1; 
stroke-linecap:round; stroke-linejoin:round;fill:none"
d="M 69000,43000
68700,42500
" /> 
</g>
<g style="fill:#008484; fill-opacity:0.0; 
stroke:#008484; stroke-width:60; stroke-opacity:1; 
stroke-linecap:round; stroke-linejoin:round;">
<text x="68850" y="43950"
textLength="1580" font-size="660" lengthAdjust="spacingAndGlyphs"
text-anchor="middle" opacity="0">+5V</text>
<path d="M68200 43730
L68580 43730
" />
<path d="M68390 43920
L68390 43540
" />
<path d="M69060 43420
L68820 43420
L68800 43660
L68820 43640
L68870 43610
L68990 43610
L69040 43640
L69060 43660
L69080 43710
L69080 43830
L69060 43870
L69040 43900
L68990 43920
L68870 43920
L68820 43900
L68800 43870
" />
<path d="M69230 43420
L69390 43920
L69560 43420
" />
</g>
</g>
<g style="fill:#008484; fill-opacity:0.0; 
stroke:#008484; stroke-width:0; stroke-opacity:1; 
stroke-linecap:round; stroke-linejoin:round;">
<g >
</g>
<g style="fill:#840000; fill-opacity:0.0; 
stroke:#840000; stroke-width:0; stroke-opacity:1; 
stroke-linecap:round; stroke-linejoin:round;">
</g>
<g style="fill:#840000; fill-opacity:0.0; 
stroke:#840000; stroke-width:50; stroke-opacity:1; 
stroke-linecap:round; stroke-linejoin:round;">
<path style="fill:#840000; fill-opacity:0.0; 
stroke:#840000; stroke-width:50; stroke-opacity:1; 
stroke-linecap:round; stroke-linejoin:round;fill:none"
d="M 56000,42500
66000,42500
" /> 
<path style="fill:#840000; fill-opacity:0.0; 
stroke:#840000; stroke-width:50; stroke-opacity:1; 
stroke-linecap:round; stroke-linejoin:round;fill:none"
d="M 56000,36500
56000,42500
" /> 
<path style="fill:#840000; fill-opacity:0.0; 
stroke:#840000; stroke-width:50; stroke-opacity:1; 
stroke-linecap:round; stroke-linejoin:round;fill:none"
d="M 66000,42500
66000,36500
" /> 
<path style="fill:#840000; fill-opacity:0.0; 
stroke:#840000; stroke-width:50; stroke-opacity:1; 
stroke-linecap:round; stroke-linejoin:round;fill:none"
d="M 66000,36500
56000,36500
" /> 
</g>
<g style="fill:#840000; fill-opacity:0.0; 
stroke:#840000; stroke-width:60; stroke-opacity:1; 
stroke-linecap:round; stroke-linejoin:round;">
<path d="M56000 38500
L53000 38500
" />
</g>
<g style="fill:#008484; fill-opacity:0.0; 
stroke:#008484; stroke-width:60; stroke-opacity:1; 
stroke-linecap:round; stroke-linejoin:round;">
<text x="56100" y="38790"
textLength="1460" font-size="780" lengthAdjust="spacingAndGlyphs"
text-anchor="start" opacity="0">VIN</text>
<path d="M56180 38170
L56380 38760
L56570 38170
" />
<path d="M56770 38760
L56770 38170
" />
<path d="M57050 38760
L57050 38170
L57390 38760
L57390 38170
" />
</g>
<g style="fill:#840000; fill-opacity:0.0; 
stroke:#840000; stroke-width:60; stroke-opacity:1; 
stroke-linecap:round; stroke-linejoin:round;">
<text x="54500" y="38400"
textLength="620" font-size="780" lengthAdjust="spacingAndGlyphs"
text-anchor="middle" opacity="0">1</text>
<path d="M54660 38370
L54330 38370
" />
<path d="M54500 38370
L54500 37780
L54440 37860
L54380 37920
L54330 37950
" />
<path d="M56000 39500
L53000 39500
" />
</g>
<g style="fill:#008484; fill-opacity:0.0; 
stroke:#008484; stroke-width:60; stroke-opacity:1; 
stroke-linecap:round; stroke-linejoin:round;">
<text x="56100" y="39790"
textLength="1860" font-size="780" lengthAdjust="spacingAndGlyphs"
text-anchor="start" opacity="0">GND</text>
<path d="M56570 39200
L56520 39170
L56430 39170
L56350 39200
L56290 39260
L56270 39310
L56240 39420
L56240 39510
L56270 39620
L56290 39680
L56350 39730
L56430 39760
L56490 39760
L56570 39730
L56600 39710
L56600 39510
L56490 39510
" />
<path d="M56860 39760
L56860 39170
L57190 39760
L57190 39170
" />
<path d="M57470 39760
L57470 39170
L57610 39170
L57700 39200
L57750 39260
L57780 39310
L57810 39420
L57810 39510
L57780 39620
L57750 39680
L57700 39730
L57610 39760
L57470 39760
" />
</g>
<g style="fill:#840000; fill-opacity:0.0; 
stroke:#840000; stroke-width:60; stroke-opacity:1; 
stroke-linecap:round; stroke-linejoin:round;">
<text x="54500" y="39400"
textLength="620" font-size="780" lengthAdjust="spacingAndGlyphs"
text-anchor="middle" opacity="0">2</text>
<path d="M54330 38830
L54350 38810
L54410 38780
L54550 38780
L54610 38810
L54640 38830
L54660 38890
L54660 38950
L54640 39030
L54300 39370
L54660 39370
" />
<path d="M66000 40500
L69000 40500
" />
</g>
<g style="fill:#008484; fill-opacity:0.0; 
stroke:#008484; stroke-width:60; stroke-opacity:1; 
stroke-linecap:round; stroke-linejoin:round;">
<text x="65900" y="40790"
textLength="1210" font-size="780" lengthAdjust="spacingAndGlyphs"
text-anchor="end" opacity="0">EN</text>
<path d="M64850 40450
L65050 40450
" />
<path d="M65130 40760
L64850 40760
L64850 40170
L65130 40170
" />
<path d="M65390 40760
L65390 40170
L65720 40760
L65720 40170
" />
</g>
<g style="fill:#840000; fill-opacity:0.0; 
stroke:#840000; stroke-width:60; stroke-opacity:1; 
stroke-linecap:round; stroke-linejoin:round;">
<text x="67500" y="40400"
textLength="620" font-size="780" lengthAdjust="spacingAndGlyphs"
text-anchor="middle" opacity="0">3</text>
<path d="M67300 39780
L67660 39780
L67470 40000
L67550 40000
L67610 40030
L67640 40060
L67660 40110
L67660 40250
L67640 40310
L67610 40340
L67550 40370
L67380 40370
L67330 40340
L67300 40310
" />
<path d="M66000 39500
L69000 39500
" />
<path d="M68850 39350
L69150 39650
" />
<path d="M69150 39350
L68850 39650
" />
</g>
<g style="fill:#008484; fill-opacity:0.0; 
stroke:#008484; stroke-width:60; stroke-opacity:1; 
stroke-linecap:round; stroke-linejoin:round;">
<text x="65900" y="39790"
textLength="1270" font-size="780" lengthAdjust="spacingAndGlyphs"
text-anchor="end" opacity="0">NC</text>
<path d="M64800 39760
L64800 39170
L65130 39760
L65130 39170
" />
<path d="M65750 39710
L65720 39730
L65640 39760
L65580 39760
L65500 39730
L65440 39680
L65420 39620
L65390 39510
L65390 39420
L65420 39310
L65440 39260
L65500 39200
L65580 39170
L65640 39170
L65720 39200
L65750 39230
" />
</g>
<g style="fill:#840000; fill-opacity:0.0; 
stroke:#840000; stroke-width:60; stroke-opacity:1; 
stroke-linecap:round; stroke-linejoin:round;">
<text x="67500" y="39400"
textLength="620" font-size="780" lengthAdjust="spacingAndGlyphs"
text-anchor="middle" opacity="0">4</text>
<path d="M67610 38970
L67610 39370
" />
<path d="M67470 38750
L67330 39170
L67690 39170
" />
<path d="M66000 38500
L69000 38500
" />
</g>
<g style="fill:#008484; fill-opacity:0.0; 
stroke:#008484; stroke-width:60; stroke-opacity:1; 
stroke-linecap:round; stroke-linejoin:round;">
<text x="65900" y="38790"
textLength="2250" font-size="780" lengthAdjust="spacingAndGlyphs"
text-anchor="end" opacity="0">VOUT</text>
<path d="M63730 38170
L63930 38760
L64120 38170
" />
<path d="M64430 38170
L64540 38170
L64600 38200
L64660 38260
L64690 38370
L64690 38570
L64660 38680
L64600 38730
L64540 38760
L64430 38760
L64380 38730
L64320 38680
L64290 38570
L64290 38370
L64320 38260
L64380 38200
L64430 38170
" />
<path d="M64940 38170
L64940 38650
L64970 38710
L64990 38730
L65050 38760
L65160 38760
L65220 38730
L65250 38710
L65280 38650
L65280 38170
" />
<path d="M65470 38170
L65810 38170
" />
<path d="M65640 38760
L65640 38170
" />
</g>
<g style="fill:#840000; fill-opacity:0.0; 
stroke:#840000; stroke-width:60; stroke-opacity:1; 
stroke-linecap:round; stroke-linejoin:round;">
<text x="67500" y="38400"
textLength="620" font-size="780" lengthAdjust="spacingAndGlyphs"
text-anchor="middle" opacity="0">5</text>
<path d="M67640 37780
L67350 37780
L67330 38060
L67350 38030
L67410 38000
L67550 38000
L67610 38030
L67640 38060
L67660 38110
L67660 38250
L67640 38310
L67610 38340
L67550 38370
L67410 38370
L67350 38340
L67330 38310
" />
</g>
<g style="fill:#008484; fill-opacity:0.0; 
stroke:#008484; stroke-width:60; stroke-opacity:1; 
stroke-linecap:round; stroke-linejoin:round;">
<text x="61000" y="34960"
textLength="1260" font-size="800" lengthAdjust="spacingAndGlyphs"
text-anchor="middle" opacity="0">U4</text>
<path d="M60540 34330
L60540 34810
L60570 34870
L60600 34900
L60650 34930
L60770 34930
L60820 34900
L60850 34870
L60880 34810
L60880 34330
" />
<path d="M61420 34530
L61420 34930
" />
<path d="M61280 34300
L61140 34730
L61510 34730
" />
<text x="61000" y="36020"
textLength="9660" font-size="800" lengthAdjust="spacingAndGlyphs"
text-anchor="middle" opacity="0">MIC5504-3.3YM5-TR</text>
<path d="M56340 35990
L56340 35390
L56540 35820
L56740 35390
L56740 35990
" />
<path d="M57020 35990
L57020 35390
" />
<path d="M57650 35930
L57620 35960
L57540 35990
L57480 35990
L57400 35960
L57340 35900
L57310 35840
L57280 35730
L57280 35640
L57310 35530
L57340 35470
L57400 35420
L57480 35390
L57540 35390
L57620 35420
L57650 35440
" />
<path d="M58200 35390
L57910 35390
L57880 35670
L57910 35640
L57970 35620
L58110 35620
L58170 35640
L58200 35670
L58220 35730
L58220 35870
L58200 35930
L58170 35960
L58110 35990
L57970 35990
L57910 35960
L57880 35930
" />
<path d="M58770 35390
L58480 35390
L58450 35670
L58480 35640
L58540 35620
L58680 35620
L58740 35640
L58770 35670
L58800 35730
L58800 35870
L58770 35930
L58740 35960
L58680 35990
L58540 35990
L58480 35960
L58450 35930
" />
<path d="M59170 35390
L59220 35390
L59280 35420
L59310 35440
L59340 35500
L59370 35620
L59370 35760
L59340 35870
L59310 35930
L59280 35960
L59220 35990
L59170 35990
L59110 35960
L59080 35930
L59050 35870
L59020 35760
L59020 35620
L59050 35500
L59080 35440
L59110 35420
L59170 35390
" />
<path d="M59880 35590
L59880 35990
" />
<path d="M59740 35360
L59600 35790
L59970 35790
" />
<path d="M60200 35760
L60650 35760
" />
<path d="M60880 35390
L61250 35390
L61050 35620
L61140 35620
L61200 35640
L61220 35670
L61250 35730
L61250 35870
L61220 35930
L61200 35960
L61140 35990
L60970 35990
L60910 35960
L60880 35930
" />
<path d="M61510 35930
L61540 35960
L61510 35990
L61480 35960
L61510 35930
L61510 35990
" />
<path d="M61740 35390
L62110 35390
L61910 35620
L62000 35620
L62050 35640
L62080 35670
L62110 35730
L62110 35870
L62080 35930
L62050 35960
L62000 35990
L61820 35990
L61770 35960
L61740 35930
" />
<path d="M62480 35700
L62480 35990
" />
<path d="M62280 35390
L62480 35700
L62680 35390
" />
<path d="M62880 35990
L62880 35390
L63080 35820
L63280 35390
L63280 35990
" />
<path d="M63850 35390
L63570 35390
L63540 35670
L63570 35640
L63620 35620
L63770 35620
L63820 35640
L63850 35670
L63880 35730
L63880 35870
L63850 35930
L63820 35960
L63770 35990
L63620 35990
L63570 35960
L63540 35930
" />
<path d="M64140 35760
L64600 35760
" />
<path d="M64800 35390
L65140 35390
" />
<path d="M64970 35990
L64970 35390
" />
<path d="M65680 35990
L65480 35700
" />
<path d="M65340 35990
L65340 35390
L65570 35390
L65620 35420
L65650 35440
L65680 35500
L65680 35590
L65650 35640
L65620 35670
L65570 35700
L65340 35700
" />
</g>
</g>
<g style="fill:#008484; fill-opacity:0.0; 
stroke:#008484; stroke-width:0; stroke-opacity:1; 
stroke-linecap:round; stroke-linejoin:round;">
<g >
</g>
<g style="fill:#840000; fill-opacity:0.0; 
stroke:#840000; stroke-width:0; stroke-opacity:1; 
stroke-linecap:round; stroke-linejoin:round;">
</g>
<g style="fill:#840000; fill-opacity:0.0; 
stroke:#840000; stroke-width:60; stroke-opacity:1; 
stroke-linecap:round; stroke-linejoin:round;">
<path style="fill:#840000; fill-opacity:0.0; 
stroke:#840000; stroke-width:60; stroke-opacity:1; 
stroke-linecap:round; stroke-linejoin:round;fill:none"
d="M 72000,38200
72500,38500
" /> 
<path style="fill:#840000; fill-opacity:0.0; 
stroke:#840000; stroke-width:60; stroke-opacity:1; 
stroke-linecap:round; stroke-linejoin:round;fill:none"
d="M 71500,38500
72500,38500
" /> 
<path style="fill:#840000; fill-opacity:0.0; 
stroke:#840000; stroke-width:60; stroke-opacity:1; 
stroke-linecap:round; stroke-linejoin:round;fill:none"
d="M 72500,38500
72000,38800
" /> 
</g>
<g style="fill:#008484; fill-opacity:0.0; 
stroke:#008484; stroke-width:60; stroke-opacity:1; 
stroke-linecap:round; stroke-linejoin:round;">
<text x="73810" y="38920"
textLength="2060" font-size="660" lengthAdjust="spacingAndGlyphs"
text-anchor="middle" opacity="0">+3V3</text>
<path d="M72920 38700
L73310 38700
" />
<path d="M73110 38890
L73110 38510
" />
<path d="M73500 38390
L73810 38390
L73640 38580
L73710 38580
L73760 38610
L73780 38630
L73810 38680
L73810 38800
L73780 38840
L73760 38870
L73710 38890
L73570 38890
L73520 38870
L73500 38840
" />
<path d="M73950 38390
L74110 38890
L74280 38390
" />
<path d="M74400 38390
L74710 38390
L74540 38580
L74610 38580
L74660 38610
L74690 38630
L74710 38680
L74710 38800
L74690 38840
L74660 38870
L74610 38890
L74470 38890
L74420 38870
L74400 38840
" />
</g>
</g>
<g style="fill:#008484; fill-opacity:0.0; 
stroke:#008484; stroke-width:0; stroke-opacity:1; 
stroke-linecap:round; stroke-linejoin:round;">
<g >
</g>
<g style="fill:#840000; fill-opacity:0.0; 
stroke:#840000; stroke-width:0; stroke-opacity:1; 
stroke-linecap:round; stroke-linejoin:round;">
</g>
<g style="fill:#840000; fill-opacity:1.0; 
stroke:#840000; stroke-width:60; stroke-opacity:1; 
stroke-linecap:round; stroke-linejoin:round;">
<rect x="70200" y="40100" width="1600" height="200" rx="0" />
<rect x="70200" y="39700" width="1600" height="200" rx="0" />
</g>
<g style="fill:#840000; fill-opacity:0.0; 
stroke:#840000; stroke-width:60; stroke-opacity:1; 
stroke-linecap:round; stroke-linejoin:round;">
<path style="fill:#840000; fill-opacity:0.0; 
stroke:#840000; stroke-width:60; stroke-opacity:1; 
stroke-linecap:round; stroke-linejoin:round;fill:none"
d="M 71000,40500
71000,40300
" /> 
<path style="fill:#840000; fill-opacity:0.0; 
stroke:#840000; stroke-width:60; stroke-opacity:1; 
stroke-linecap:round; stroke-linejoin:round;fill:none"
d="M 71000,39500
71000,39700
" /> 
<path d="M71000 39500
L71000 38500
" />
<path d="M71000 40500
L71000 41500
" />
</g>
<g style="fill:#008484; fill-opacity:0.0; 
stroke:#008484; stroke-width:60; stroke-opacity:1; 
stroke-linecap:round; stroke-linejoin:round;">
<text x="72550" y="39830"
textLength="940" font-size="600" lengthAdjust="spacingAndGlyphs"
text-anchor="middle" opacity="0">C7</text>
<path d="M72470 39770
L72450 39790
L72380 39810
L72340 39810
L72280 39790
L72230 39740
L72210 39700
L72190 39620
L72190 39550
L72210 39470
L72230 39420
L72280 39380
L72340 39360
L72380 39360
L72450 39380
L72470 39400
" />
<path d="M72620 39360
L72920 39360
L72730 39810
" />
<text x="72750" y="40670"
textLength="1350" font-size="600" lengthAdjust="spacingAndGlyphs"
text-anchor="middle" opacity="0">1UF</text>
<path d="M72450 40650
L72190 40650
" />
<path d="M72320 40650
L72320 40200
L72270 40260
L72230 40310
L72190 40330
" />
<path d="M72640 40200
L72640 40560
L72660 40610
L72680 40630
L72720 40650
L72810 40650
L72850 40630
L72870 40610
L72900 40560
L72900 40200
" />
<path d="M73260 40410
L73110 40410
" />
<path d="M73110 40650
L73110 40200
L73320 40200
" />
</g>
</g>
<g style="fill:#008484; fill-opacity:0.0; 
stroke:#008484; stroke-width:0; stroke-opacity:1; 
stroke-linecap:round; stroke-linejoin:round;">
<g >
</g>
<g style="fill:#840000; fill-opacity:0.0; 
stroke:#840000; stroke-width:0; stroke-opacity:1; 
stroke-linecap:round; stroke-linejoin:round;">
</g>
<g style="fill:#840000; fill-opacity:1.0; 
stroke:#840000; stroke-width:60; stroke-opacity:1; 
stroke-linecap:round; stroke-linejoin:round;">
<rect x="49700" y="39100" width="1600" height="200" rx="0" />
<rect x="49700" y="38700" width="1600" height="200" rx="0" />
</g>
<g style="fill:#840000; fill-opacity:0.0; 
stroke:#840000; stroke-width:60; stroke-opacity:1; 
stroke-linecap:round; stroke-linejoin:round;">
<path style="fill:#840000; fill-opacity:0.0; 
stroke:#840000; stroke-width:60; stroke-opacity:1; 
stroke-linecap:round; stroke-linejoin:round;fill:none"
d="M 50500,39500
50500,39300
" /> 
<path style="fill:#840000; fill-opacity:0.0; 
stroke:#840000; stroke-width:60; stroke-opacity:1; 
stroke-linecap:round; stroke-linejoin:round;fill:none"
d="M 50500,38500
50500,38700
" /> 
<path d="M50500 38500
L50500 37500
" />
<path d="M50500 39500
L50500 40500
" />
</g>
<g style="fill:#008484; fill-opacity:0.0; 
stroke:#008484; stroke-width:60; stroke-opacity:1; 
stroke-linecap:round; stroke-linejoin:round;">
<text x="52050" y="38830"
textLength="940" font-size="600" lengthAdjust="spacingAndGlyphs"
text-anchor="middle" opacity="0">C4</text>
<path d="M51970 38770
L51950 38790
L51880 38810
L51840 38810
L51780 38790
L51730 38740
L51710 38700
L51690 38620
L51690 38550
L51710 38470
L51730 38420
L51780 38380
L51840 38360
L51880 38360
L51950 38380
L51970 38400
" />
<path d="M52360 38510
L52360 38810
" />
<path d="M52250 38340
L52140 38660
L52420 38660
" />
<text x="52250" y="39670"
textLength="1350" font-size="600" lengthAdjust="spacingAndGlyphs"
text-anchor="middle" opacity="0">1UF</text>
<path d="M51950 39650
L51690 39650
" />
<path d="M51820 39650
L51820 39200
L51770 39260
L51730 39310
L51690 39330
" />
<path d="M52140 39200
L52140 39560
L52160 39610
L52180 39630
L52220 39650
L52310 39650
L52350 39630
L52370 39610
L52400 39560
L52400 39200
" />
<path d="M52760 39410
L52610 39410
" />
<path d="M52610 39650
L52610 39200
L52820 39200
" />
</g>
</g>
<g style="fill:#008484; fill-opacity:0.0; 
stroke:#008484; stroke-width:0; stroke-opacity:1; 
stroke-linecap:round; stroke-linejoin:round;">
<g >
</g>
<g style="fill:#840000; fill-opacity:0.0; 
stroke:#840000; stroke-width:0; stroke-opacity:1; 
stroke-linecap:round; stroke-linejoin:round;">
</g>
<g style="fill:#840000; fill-opacity:0.0; 
stroke:#840000; stroke-width:60; stroke-opacity:1; 
stroke-linecap:round; stroke-linejoin:round;">
<path style="fill:#840000; fill-opacity:0.0; 
stroke:#840000; stroke-width:60; stroke-opacity:1; 
stroke-linecap:round; stroke-linejoin:round;fill:none"
d="M 71000,44000
71000,44500
71500,44500
71000,45000
70500,44500
71000,44500
" /> 
</g>
<g style="fill:#008484; fill-opacity:0.0; 
stroke:#008484; stroke-width:60; stroke-opacity:1; 
stroke-linecap:round; stroke-linejoin:round;">
<text x="71050" y="46000"
textLength="1580" font-size="660" lengthAdjust="spacingAndGlyphs"
text-anchor="middle" opacity="0">GND</text>
<path d="M70660 45500
L70620 45470
L70550 45470
L70470 45500
L70430 45540
L70400 45590
L70380 45690
L70380 45760
L70400 45850
L70430 45900
L70470 45950
L70550 45970
L70590 45970
L70660 45950
L70690 45920
L70690 45760
L70590 45760
" />
<path d="M70900 45970
L70900 45470
L71190 45970
L71190 45470
" />
<path d="M71430 45970
L71430 45470
L71550 45470
L71620 45500
L71660 45540
L71690 45590
L71710 45690
L71710 45760
L71690 45850
L71660 45900
L71620 45950
L71550 45970
L71430 45970
" />
</g>
</g>
<g style="fill:#008484; fill-opacity:0.0; 
stroke:#008484; stroke-width:60; stroke-opacity:1; 
stroke-linecap:round; stroke-linejoin:round;">
</g>
<g style="fill:#008400; fill-opacity:0.0; 
stroke:#008400; stroke-width:60; stroke-opacity:1; 
stroke-linecap:round; stroke-linejoin:round;">
<path d="M51500 37500
L53000 37500
" />
<path d="M50500 41500
L50500 43500
" />
<path d="M53000 41500
L50500 41500
" />
<path d="M49500 37500
L50500 37500
" />
<path d="M49500 35000
L49500 37500
" />
<path d="M47500 41500
L50500 41500
" />
<path d="M47500 43500
L47500 42500
" />
<path d="M53000 38500
L53000 37500
" />
<path d="M69000 38500
L71000 38500
" />
<path d="M50500 40500
L50500 41500
" />
<path d="M49000 37500
L49500 37500
" />
<path d="M69000 42000
L69000 40500
" />
<path d="M71000 41500
L71000 44000
" />
<path d="M53000 39500
L53000 41500
" />
<path d="M71000 38500
L71500 38500
" />
<path d="M50500 37500
L51500 37500
" />
<path d="M47500 42500
L47500 41500
" />
</g>
<g style="fill:#008400; fill-opacity:0.0; 
stroke:#008400; stroke-width:0; stroke-opacity:1; 
stroke-linecap:round; stroke-linejoin:round;">
</g>
<g style="fill:#008400; fill-opacity:1.0; 
stroke:#008400; stroke-width:100; stroke-opacity:1; 
stroke-linecap:round; stroke-linejoin:round;">
<circle cx="69000" cy="38500" r="200" /> 
</g>
<g style="fill:#008400; fill-opacity:1.0; 
stroke:#008400; stroke-width:0; stroke-opacity:1; 
stroke-linecap:round; stroke-linejoin:round;">
</g>
<g style="fill:#008400; fill-opacity:1.0; 
stroke:#008400; stroke-width:100; stroke-opacity:1; 
stroke-linecap:round; stroke-linejoin:round;">
<circle cx="47500" cy="42500" r="200" /> 
</g>
<g style="fill:#008400; fill-opacity:1.0; 
stroke:#008400; stroke-width:0; stroke-opacity:1; 
stroke-linecap:round; stroke-linejoin:round;">
</g>
<g style="fill:#008400; fill-opacity:1.0; 
stroke:#008400; stroke-width:100; stroke-opacity:1; 
stroke-linecap:round; stroke-linejoin:round;">
<circle cx="49500" cy="37500" r="200" /> 
</g>
<g style="fill:#008400; fill-opacity:1.0; 
stroke:#008400; stroke-width:0; stroke-opacity:1; 
stroke-linecap:round; stroke-linejoin:round;">
</g>
<g style="fill:#008400; fill-opacity:1.0; 
stroke:#008400; stroke-width:100; stroke-opacity:1; 
stroke-linecap:round; stroke-linejoin:round;">
<circle cx="51500" cy="37500" r="200" /> 
</g>
<g style="fill:#008400; fill-opacity:1.0; 
stroke:#008400; stroke-width:0; stroke-opacity:1; 
stroke-linecap:round; stroke-linejoin:round;">
</g>
<g style="fill:#008400; fill-opacity:1.0; 
stroke:#008400; stroke-width:100; stroke-opacity:1; 
stroke-linecap:round; stroke-linejoin:round;">
<circle cx="71000" cy="38500" r="200" /> 
</g>
<g style="fill:#008400; fill-opacity:1.0; 
stroke:#008400; stroke-width:0; stroke-opacity:1; 
stroke-linecap:round; stroke-linejoin:round;">
</g>
<g style="fill:#008400; fill-opacity:1.0; 
stroke:#008400; stroke-width:100; stroke-opacity:1; 
stroke-linecap:round; stroke-linejoin:round;">
<circle cx="50500" cy="41500" r="200" /> 
</g>
<g style="fill:#008400; fill-opacity:1.0; 
stroke:#008400; stroke-width:0; stroke-opacity:1; 
stroke-linecap:round; stroke-linejoin:round;">
</g>
<g style="fill:#008400; fill-opacity:1.0; 
stroke:#008400; stroke-width:100; stroke-opacity:1; 
stroke-linecap:round; stroke-linejoin:round;">
<circle cx="50500" cy="37500" r="200" /> 
</g> 
</svg>
